<?xml version="1.0" encoding="UTF-8"?>
<svg version="1.1" xmlns="http://www.w3.org/2000/svg" width="256" height="256" viewBox="17 23 222 225">
<path d="M0 0 C84.48 0 168.96 0 256 0 C256 92.4 256 184.8 256 280 C171.52 280 87.04 280 0 280 C0 187.6 0 95.2 0 0 Z " fill="#0E1426" transform="translate(0,0)"/>
<path d="M0 0 C84.48 0 168.96 0 256 0 C256 92.4 256 184.8 256 280 C171.52 280 87.04 280 0 280 C0 187.6 0 95.2 0 0 Z M35 36 C34.39800781 36.47566406 33.79601562 36.95132813 33.17578125 37.44140625 C25.12031809 44.37453522 19.77860659 56.67915865 18 67 C17.70374967 71.45153021 17.70621156 75.89379957 17.70947266 80.35400391 C17.70347854 81.69206107 17.69667098 83.03011479 17.68911743 84.36816406 C17.67153513 87.98423622 17.66676522 91.60021355 17.66548586 95.21632433 C17.66405872 97.48255794 17.65977843 99.74876788 17.65449142 102.01499557 C17.63601338 109.94149031 17.62781759 117.86791803 17.62939453 125.79443359 C17.63059375 133.149391 17.60952908 140.50405392 17.5779072 147.85893691 C17.55162967 154.19983043 17.54103209 160.54062849 17.54230535 166.88157594 C17.54281184 170.65691081 17.53730491 174.43198397 17.51594925 178.20726395 C17.49637323 181.76481827 17.49657198 185.32186658 17.51098251 188.87944031 C17.51402146 190.7827606 17.49752867 192.68608201 17.48010254 194.58932495 C17.5955271 210.671444 22.58659537 224.01794052 33.55078125 235.70703125 C44.29764555 245.76829017 57.03529631 248.61005066 71.34057617 248.48583984 C72.7479233 248.48799083 74.15526867 248.4918761 75.56260681 248.49734497 C79.35180653 248.50696048 83.14052816 248.49183547 86.9296701 248.47143888 C90.91105886 248.45374747 94.89243552 248.45739525 98.87385559 248.4581604 C105.55392359 248.45629327 112.23380876 248.4390062 118.91381836 248.41162109 C126.62163257 248.38013794 134.32924713 248.36962661 142.037121 248.3710922 C150.27039807 248.3724459 158.5035989 248.35855316 166.73685288 248.34019899 C169.09862642 248.33594981 171.46038754 248.3345185 173.82216454 248.33372116 C177.53970248 248.33170319 181.25707474 248.31942009 184.97455788 248.29938889 C186.97915575 248.29081995 188.98378762 248.29187679 190.98840332 248.29327393 C197.35229592 248.24829004 202.91786748 247.9081631 209 246 C209.87527344 245.72800781 210.75054687 245.45601562 211.65234375 245.17578125 C224.93922254 240.15629371 233.62040184 230.28872368 239.9921875 217.8125 C243.11505864 209.09751077 243.29715525 200.37574853 243.29052734 191.20361328 C243.29652486 189.84231198 243.30333318 188.48101404 243.31088257 187.11972046 C243.32842257 183.45018393 243.33323275 179.78074089 243.33451414 176.11116648 C243.33594281 173.81177093 243.34022578 171.51239862 243.34550858 169.21300888 C243.36396709 161.17210144 243.37218419 153.13125996 243.37060547 145.09033203 C243.36940426 137.62509607 243.39051317 130.16014929 243.4220928 122.69498646 C243.44833729 116.25896808 243.4589694 109.82304372 243.45769465 103.38697231 C243.45718754 99.55472347 243.46273083 95.72273221 243.48405075 91.89053726 C243.50357269 88.28371801 243.50346387 84.67739849 243.48901749 81.07056046 C243.48596706 79.13586217 243.50250633 77.20116305 243.51989746 75.26654053 C243.41842944 60.99365622 238.39248101 48.25450111 228.73828125 37.65234375 C217.42972564 26.9028628 204.54031546 23.23455216 189.23632812 23.35302734 C187.80723464 23.34623203 186.37814994 23.33731828 184.94908142 23.32647705 C181.10796853 23.30390355 177.26753563 23.31242761 173.42641258 23.32837248 C169.38195513 23.34114673 165.33755088 23.32925971 161.29309082 23.32144165 C154.50469652 23.31237828 147.71657536 23.32424536 140.92822266 23.34814453 C133.11122701 23.37534961 125.29488371 23.36653307 117.47790384 23.3390125 C110.73263979 23.31622734 103.98757063 23.31316701 97.24228048 23.32620585 C93.22839277 23.33394901 89.21481036 23.33518535 85.20094299 23.31852341 C81.4248551 23.30393971 77.64959751 23.31434912 73.8735981 23.34299469 C71.84969813 23.35261829 69.82572683 23.33802482 67.80186462 23.32235718 C54.86773518 23.46990179 44.59996111 27.34678062 35 36 Z " fill="#0F1527" transform="translate(0,0)"/>
<path d="M0 0 C1.10996338 -0.00128906 2.21992676 -0.00257812 3.36352539 -0.00390625 C12.05021727 0.10593338 19.96811053 1.43733571 28.375 3.484375 C33.08843509 4.61188527 37.55598218 4.72977432 42.375 4.375 C43.695 4.375 45.015 4.375 46.375 4.375 C48.24240684 8.10981368 47.93247571 12.30906305 47.375 16.375 C46.0097829 19.26335111 44.56751925 20.9736694 42.375 23.375 C41.715 23.375 41.055 23.375 40.375 23.375 C40.71015625 24.51324219 41.0453125 25.65148437 41.390625 26.82421875 C42.53640354 31.39426703 42.37399636 35.51995 42.125 40.1875 C41.88008602 48.24309443 43.42549876 53.80765625 48.375 60.375 C48.705 60.705 49.035 61.035 49.375 61.375 C49.41563832 63.04117115 49.417721 64.70888095 49.375 66.375 C45.91 66.87 45.91 66.87 42.375 67.375 C42.41625 68.40625 42.4575 69.4375 42.5 70.5 C42.37661247 74.32501357 41.5941218 76.78934766 40.375 80.375 C40.1194261 82.65919173 39.94122008 84.93159847 39.81640625 87.2265625 C39.20618913 90.19664583 38.71574136 91.3769147 36.375 93.375 C32.39473583 94.03664401 28.35627361 93.83272258 24.33398438 93.77539062 C19.130076 93.77744141 19.130076 93.77744141 14.88671875 96.5703125 C11.8875888 102.13458977 9.00775849 110.08568907 10.375 116.375 C11.96927648 118.67040087 13.70710925 120.79982173 15.48828125 122.953125 C20.96449962 129.98263927 22.3753239 135.37791514 23.375 144.375 C-4.675 144.375 -32.725 144.375 -61.625 144.375 C-60.06417855 127.205964 -52.52431386 114.83567863 -39.38671875 103.75 C-35.0625 100.375 -35.0625 100.375 -31.625 100.375 C-31.3775 99.59125 -31.13 98.8075 -30.875 98 C-29.625 94.375 -29.625 94.375 -28.6015625 92.06640625 C-25.28886486 84.53648005 -24.19302201 78.65292329 -27.125 70.8125 C-29.48334982 65.40617459 -32.18533251 60.14602847 -34.89453125 54.90795898 C-39.77466615 45.40031067 -40.41700366 33.76101389 -37.1875 23.5 C-32.89599113 13.45122043 -24.14602921 5.80785476 -14.32177734 1.32373047 C-9.65102222 -0.31944846 -4.90775469 -0.00588063 0 0 Z " fill="#60AAF1" transform="translate(124.625,63.625)"/>
<path d="M0 0 C1.42879622 -0.00707396 2.85758496 -0.01582512 4.28636169 -0.02610779 C8.13575872 -0.04844841 11.98474161 -0.0456981 15.83417845 -0.03678632 C19.06197425 -0.03164453 22.2896944 -0.03899481 25.5174824 -0.04625839 C33.13981581 -0.06320931 40.76194881 -0.05974098 48.38427734 -0.04296875 C56.21598376 -0.02605727 64.04713236 -0.04187922 71.87877786 -0.07419163 C78.63247942 -0.10098837 85.38600842 -0.10813632 92.13975775 -0.09967655 C96.16039963 -0.09477595 100.18070635 -0.09680553 104.20130539 -0.11746407 C107.98554683 -0.13598053 111.76899386 -0.12967118 115.55319405 -0.10526466 C117.58190326 -0.09796589 119.61065588 -0.11498828 121.63929749 -0.13308716 C135.81824777 0.01174009 147.12326857 4.99214374 157.46337891 14.53344727 C163.09997954 20.85271312 166.81570324 27.52488373 169.46337891 35.53344727 C169.80427646 36.44983664 170.14517401 37.36622601 170.49640179 38.31038475 C171.47148115 41.56045311 171.71721411 44.10917592 171.72407532 47.48916626 C171.73116013 48.65805389 171.73824493 49.82694153 171.74554443 51.03125 C171.74306702 52.2999292 171.7405896 53.5686084 171.73803711 54.87573242 C171.74238839 56.23644286 171.74757292 57.59715085 171.75352478 58.95785522 C171.76688725 62.64416624 171.7674961 66.33037453 171.76496148 70.01670504 C171.76388903 73.10266099 171.76878257 76.1885964 171.7735669 79.27454793 C171.78465444 86.56350016 171.78510496 93.85240085 171.77905273 101.14135742 C171.77302477 108.63600055 171.78529562 116.13045539 171.8066228 123.6250664 C171.82430385 130.07798756 171.83022962 136.53084916 171.82698506 142.98379362 C171.82518101 146.82946413 171.827719 150.67500058 171.8416996 154.52064896 C171.85437819 158.14376847 171.85224039 161.76659765 171.83928871 165.38971329 C171.83583685 167.33397445 171.84702909 169.27824489 171.8588562 171.22247314 C171.76276049 187.46796094 167.10796527 200.42814993 155.88916016 212.30688477 C146.80196462 220.64778888 135.61279925 224.61298756 123.37599182 224.69407654 C122.17778305 224.70412216 120.97957428 224.71416779 119.74505615 224.72451782 C118.44368713 224.73034882 117.14231812 224.73617981 115.80151367 224.7421875 C114.40626294 224.75173689 113.01101451 224.76162851 111.61576843 224.77183533 C107.04546886 224.80310662 102.47515177 224.82347997 97.90478516 224.84204102 C97.12454821 224.84533834 96.34431127 224.84863566 95.54043078 224.8520329 C88.16762638 224.88281771 80.79481754 224.90949647 73.42196751 224.92645168 C64.02935796 224.9483133 54.63732315 224.99020489 45.2449432 225.05988926 C38.62044233 225.10734766 31.99609527 225.1314144 25.37142986 225.13864857 C21.42539156 225.14357338 17.48000238 225.15834673 13.53415108 225.19839287 C9.81316236 225.23566022 6.09318272 225.24354061 2.3720417 225.23038673 C0.38174457 225.23046513 -1.60848586 225.26005745 -3.59854126 225.29107666 C-16.61630968 225.18795109 -29.14986423 220.86498792 -38.53662109 211.53344727 C-50.47269861 198.46365629 -54.00508331 185.26300115 -53.94067383 167.70947266 C-53.94639267 166.36920102 -53.9533627 165.02893424 -53.96147156 163.68867493 C-53.97925058 160.08525015 -53.97826383 156.48207089 -53.97252917 152.87861562 C-53.96941523 149.85457696 -53.975554 146.83058398 -53.98156792 143.80655187 C-53.99556123 136.66510316 -53.9940952 129.52377421 -53.98266602 122.38232422 C-53.97118786 115.04883382 -53.98526709 107.71570928 -54.01206249 100.38226706 C-54.03431036 94.05318593 -54.04083659 87.72421889 -54.03498608 81.39510149 C-54.03163715 77.62937579 -54.03389246 73.8638845 -54.05123711 70.09819221 C-54.06685049 66.55451776 -54.0625942 63.0113801 -54.04393196 59.46772575 C-54.03856597 57.57023117 -54.0526496 55.67271162 -54.06762695 53.77526855 C-53.94112783 38.83224414 -49.10436649 25.00160468 -38.66162109 14.15844727 C-27.20272804 3.36557035 -15.64156051 -0.07764791 0 0 Z M-39.91162109 23.90844727 C-45.5112784 32.05340334 -48.64713369 40.31687285 -48.67706299 50.23051453 C-48.68277313 51.3672612 -48.68848328 52.50400787 -48.69436646 53.67520142 C-48.69548431 54.91321503 -48.69660217 56.15122864 -48.69775391 57.42675781 C-48.70271881 58.73791061 -48.70768372 60.04906342 -48.71279907 61.39994812 C-48.72588732 64.99111755 -48.73236126 68.58226832 -48.73680973 72.17345786 C-48.7397468 74.42070816 -48.74385284 76.66795343 -48.7483139 78.91520119 C-48.76198067 85.95675211 -48.77165081 92.99829145 -48.77551579 100.03985471 C-48.77999186 108.14866068 -48.79752214 116.2572977 -48.82651639 124.36605233 C-48.84818801 130.64651571 -48.85822302 136.92693175 -48.85955691 143.20743209 C-48.86060121 146.95246343 -48.86642829 150.69733577 -48.88437653 154.4423275 C-48.90403793 158.62604262 -48.89954649 162.8094077 -48.89306641 166.99316406 C-48.90228119 168.22105652 -48.91149597 169.44894897 -48.92098999 170.71405029 C-48.8500832 185.3666879 -44.10530969 197.57631747 -33.99755859 208.27172852 C-23.76792797 217.67324619 -13.17535606 219.98456931 0.30810547 219.9375 C1.6986699 219.94321088 3.08922965 219.95017791 4.4797821 219.95829773 C8.23832688 219.97616994 11.99663741 219.97507145 15.75521183 219.96935534 C18.90340992 219.96625334 22.05156367 219.9723675 25.19975543 219.97839409 C32.63451025 219.99241966 40.06915013 219.99089587 47.50390625 219.97949219 C55.14747601 219.96802651 62.79069426 219.98206485 70.43421769 220.00888866 C77.01882577 220.0311224 83.60332415 220.03766544 90.18796706 220.03181225 C94.11077146 220.02845808 98.03335088 220.03075359 101.95612335 220.04806328 C105.64993639 220.06365223 109.34323381 220.0594465 113.03702736 220.04075813 C115.01943923 220.03537781 117.00187492 220.04949701 118.98423767 220.06445312 C132.89976284 219.95118392 143.88687209 215.71353427 154.15087891 206.34594727 C164.10336503 195.90740949 165.7627998 184.38608559 165.76977539 170.61865234 C165.77740578 169.20853236 165.78583478 167.79841652 165.79499817 166.38830566 C165.81686626 162.5719123 165.82573193 158.75559902 165.83082461 154.93915009 C165.834478 152.54948315 165.84072319 150.15983687 165.847826 147.77017784 C165.872296 139.418065 165.88536662 131.06601403 165.88891602 122.71386719 C165.89254705 114.95383075 165.92241746 107.19419083 165.9643206 99.43427545 C165.99912692 92.75203515 166.01446625 86.06992559 166.01516205 79.38759536 C166.0159515 75.40545066 166.02453547 71.42371017 166.05315971 67.44165993 C166.07951806 63.69117728 166.08144823 59.94142883 166.06550407 56.19089508 C166.06285241 54.17742252 166.08475258 52.16396309 166.10769653 50.15061951 C166.00926479 37.78639506 162.10402014 27.49041255 153.46337891 18.53344727 C141.49453399 7.85701283 132.36405526 5.23515504 116.52685547 5.22705078 C115.12644006 5.21941793 113.72602881 5.21098852 112.32562256 5.201828 C108.54027905 5.1799869 104.75501627 5.17109817 100.96961689 5.16600156 C98.5988731 5.1623456 96.22815007 5.15609918 93.85741425 5.14900017 C85.57013531 5.12454162 77.28291864 5.1114616 68.99560547 5.10791016 C61.29746297 5.10427781 53.59971984 5.07439502 45.9016993 5.03250557 C39.27039374 4.99769893 32.6392199 4.98235993 26.00782371 4.98166412 C22.0569917 4.98087482 18.10656715 4.97229755 14.15583038 4.94366646 C10.43570135 4.91730672 6.71631247 4.91537866 2.9961319 4.9313221 C0.99936731 4.93397331 -0.99738405 4.9120757 -2.99401855 4.88912964 C-18.53114027 5.01382327 -30.50263362 11.61774038 -39.91162109 23.90844727 Z " fill="#8C69D1" transform="translate(71.53662109375,23.466552734375)"/>
<path d="M0 0 C1.42879622 -0.00707396 2.85758496 -0.01582512 4.28636169 -0.02610779 C8.13575872 -0.04844841 11.98474161 -0.0456981 15.83417845 -0.03678632 C19.06197425 -0.03164453 22.2896944 -0.03899481 25.5174824 -0.04625839 C33.13981581 -0.06320931 40.76194881 -0.05974098 48.38427734 -0.04296875 C56.21598376 -0.02605727 64.04713236 -0.04187922 71.87877786 -0.07419163 C78.63247942 -0.10098837 85.38600842 -0.10813632 92.13975775 -0.09967655 C96.16039963 -0.09477595 100.18070635 -0.09680553 104.20130539 -0.11746407 C107.98554683 -0.13598053 111.76899386 -0.12967118 115.55319405 -0.10526466 C117.58190326 -0.09796589 119.61065588 -0.11498828 121.63929749 -0.13308716 C135.81824777 0.01174009 147.12326857 4.99214374 157.46337891 14.53344727 C164.52098518 22.44582091 170.61234866 32.65076284 170.5769043 43.56762695 C170.57682877 44.34813416 170.57675323 45.12864136 170.57667542 45.93280029 C170.57151413 46.76523254 170.56635284 47.59766479 170.56103516 48.45532227 C170.55891273 49.74530121 170.55891273 49.74530121 170.55674744 51.06134033 C170.55115987 53.80207835 170.53860965 56.54273403 170.52587891 59.28344727 C170.5208623 61.14412317 170.51629967 63.00480035 170.51220703 64.86547852 C170.50119451 69.42149972 170.48393842 73.97745954 170.46337891 78.53344727 C167.46337891 76.53344727 167.46337891 76.53344727 166.78686523 74.78710938 C166.38662579 71.99872424 166.31710443 69.29243166 166.28759766 66.47485352 C166.26375 65.28311523 166.23990234 64.09137695 166.21533203 62.86352539 C166.17296754 60.38712808 166.14139547 57.91051829 166.12158203 55.43383789 C165.80126683 41.52619892 162.26348916 28.78687054 152.51416016 18.47094727 C141.30378971 8.25167048 131.45057641 6.23468759 116.52685547 6.22705078 C115.12644006 6.21941793 113.72602881 6.21098852 112.32562256 6.201828 C108.54027905 6.1799869 104.75501627 6.17109817 100.96961689 6.16600156 C98.5988731 6.1623456 96.22815007 6.15609918 93.85741425 6.14900017 C85.57013531 6.12454162 77.28291864 6.1114616 68.99560547 6.10791016 C61.29746297 6.10427781 53.59971984 6.07439502 45.9016993 6.03250557 C39.27039374 5.99769893 32.6392199 5.98235993 26.00782371 5.98166412 C22.0569917 5.98087482 18.10656715 5.97229755 14.15583038 5.94366646 C10.43570135 5.91730672 6.71631247 5.91537866 2.9961319 5.9313221 C0.99936731 5.93397331 -0.99738405 5.9120757 -2.99401855 5.88912964 C-15.96667687 5.99324209 -26.29024829 10.38322392 -35.53662109 19.53344727 C-44.86964423 30.47870089 -47.22749838 41.64985641 -48.53662109 55.53344727 C-48.86662109 55.53344727 -49.19662109 55.53344727 -49.53662109 55.53344727 C-49.86662109 52.89344727 -50.19662109 50.25344727 -50.53662109 47.53344727 C-50.86662109 47.53344727 -51.19662109 47.53344727 -51.53662109 47.53344727 C-53.01338243 36.70386413 -49.4564008 28.38004543 -43.53662109 19.53344727 C-31.92604141 5.15757179 -18.16865333 -0.09019292 0 0 Z " fill="#3DC9DD" transform="translate(71.53662109375,23.466552734375)"/>
<path d="M0 0 C0.33 0 0.66 0 1 0 C1.33 2.31 1.66 4.62 2 7 C2.33 7 2.66 7 3 7 C3.95366787 14.76162256 4.16779074 22.4380038 4.20532227 30.25244141 C4.21522186 31.54137299 4.22512146 32.83030457 4.23532104 34.15829468 C4.26212514 37.66170385 4.2832657 41.16512616 4.30332303 44.66857958 C4.32533552 48.34144454 4.35264884 52.01427016 4.37937927 55.68710327 C4.42910141 62.62827821 4.47411535 69.56947522 4.51740164 76.51069295 C4.56695015 84.41890195 4.6218024 92.32707144 4.67708123 100.23524213 C4.79058648 116.49012492 4.89749281 132.74504405 5 149 C4.01 149 3.02 149 2 149 C-2.06453968 143.02956206 -1.40762806 136.73420541 -1.35644531 129.73022461 C-1.35723688 128.37786222 -1.35933626 127.02550006 -1.36264038 125.67314148 C-1.36776061 122.01201149 -1.35426697 118.35116408 -1.33711338 114.69007945 C-1.32204191 110.85406751 -1.32325057 107.01805869 -1.32244873 103.18202209 C-1.31876005 96.74198605 -1.30381248 90.30205684 -1.28125 83.86206055 C-1.25236574 75.60092039 -1.24202458 67.33986616 -1.2375679 59.07868099 C-1.23358463 51.9686075 -1.22108468 44.8585526 -1.20722103 37.74849248 C-1.20312784 35.46642744 -1.20019929 33.18436305 -1.19742584 30.90229607 C-1.19252211 27.31456407 -1.18230064 23.72688373 -1.16798782 20.13917732 C-1.16132755 18.19716342 -1.15946421 16.25513492 -1.15774536 14.31311035 C-1.15203522 13.15375473 -1.14632507 11.99439911 -1.14044189 10.7999115 C-1.1359799 9.29202513 -1.1359799 9.29202513 -1.13142776 7.75367641 C-1.00339681 5.07116996 -0.60064876 2.61366356 0 0 Z " fill="#6891D0" transform="translate(19,62)"/>
<path d="M0 0 C0.33 0 0.66 0 1 0 C1.04667168 18.21918142 1.08196509 36.43834738 1.10362434 54.65757561 C1.11394735 63.11662669 1.12802718 71.57564069 1.15087891 80.03466797 C1.17078151 87.40551532 1.18370898 94.77633581 1.18817699 102.14720929 C1.1907897 106.05187689 1.1969518 109.95646765 1.21146011 113.86111069 C1.22499466 117.53329672 1.22923106 121.20537395 1.22621536 124.87758255 C1.22703138 126.87392816 1.23781455 128.87026182 1.24884033 130.86657715 C1.246091 132.04730804 1.24334167 133.22803894 1.24050903 134.44454956 C1.24235262 135.47511412 1.24419621 136.50567867 1.24609566 137.56747246 C1 140 1 140 -1 142 C-1.66 141.67 -2.32 141.34 -3 141 C-3.87330303 137.78137808 -4.1242341 134.73546953 -4.12025452 131.41252136 C-4.12162918 130.52216187 -4.12300385 129.63180237 -4.12442017 128.71446228 C-4.11902725 127.26868553 -4.11902725 127.26868553 -4.11352539 125.79370117 C-4.11367142 124.76884613 -4.11381744 123.74399109 -4.1139679 122.68807983 C-4.11327218 119.30635448 -4.1054957 115.92468446 -4.09765625 112.54296875 C-4.09579086 110.19598928 -4.09436753 107.84900942 -4.09336853 105.50202942 C-4.08955289 99.32889732 -4.07973071 93.1557888 -4.06866455 86.98266602 C-4.05842996 80.68180663 -4.05386652 74.38094343 -4.04882812 68.08007812 C-4.03810761 55.72004173 -4.0210426 43.36002283 -4 31 C-2.515 31.99 -2.515 31.99 -1 33 C-0.67 22.11 -0.34 11.22 0 0 Z " fill="#6F83D0" transform="translate(242,65)"/>
<path d="M0 0 C1.66289063 0.00676758 1.66289063 0.00676758 3.359375 0.01367188 C6.07297399 0.02536842 8.78645761 0.04175914 11.5 0.0625 C11.5 0.3925 11.5 0.7225 11.5 1.0625 C49.12 1.3925 86.74 1.7225 125.5 2.0625 C125.5 2.3925 125.5 2.7225 125.5 3.0625 C124.47296148 3.06469984 124.47296148 3.06469984 123.42517471 3.06694412 C106.7220832 3.10408599 90.01922604 3.16319792 73.31630325 3.24640274 C65.23869773 3.28611777 57.16118856 3.31854836 49.08349609 3.33349609 C42.03839018 3.34655188 34.99349697 3.37361592 27.94851089 3.41711307 C24.22234823 3.43964024 20.49644705 3.45541599 16.77021027 3.45438385 C12.59813701 3.45349183 8.42682813 3.48389111 4.25488281 3.51660156 C3.03567642 3.5115712 1.81647003 3.50654083 0.56031799 3.50135803 C-12.97667303 3.66478783 -25.25572254 7.91961989 -35.01171875 17.5390625 C-44.64547084 28.59001118 -47.29581129 39.89980292 -48.5 54.0625 C-48.83 54.0625 -49.16 54.0625 -49.5 54.0625 C-49.83 51.4225 -50.16 48.7825 -50.5 46.0625 C-50.83 46.0625 -51.16 46.0625 -51.5 46.0625 C-52.97676134 35.23291686 -49.41977971 26.90909817 -43.5 18.0625 C-36.08343356 8.87952735 -26.90416784 1.6874255 -14.97851562 0.26318359 C-9.99357743 -0.1404432 -4.9975428 -0.03885649 0 0 Z " fill="#47C8D8" transform="translate(71.5,24.9375)"/>
<path d="M0 0 C0.33 0 0.66 0 1 0 C1.00331015 0.68175922 1.00662029 1.36351845 1.01003075 2.06593704 C1.09122655 18.64933155 1.18330772 35.23262616 1.28752708 51.81589127 C1.33766373 59.83541199 1.38410652 67.85492243 1.421875 75.87451172 C1.45480068 82.86381788 1.49463507 89.85304454 1.54279006 96.84226298 C1.56804936 100.54351254 1.58983229 104.2447094 1.60334396 107.94602203 C1.61855145 112.07643573 1.64918183 116.20659611 1.68115234 120.33691406 C1.68331253 121.56618118 1.68547272 122.7954483 1.68769836 124.06196594 C1.69886185 125.18654709 1.71002533 126.31112823 1.7215271 127.4697876 C1.72705786 128.44688816 1.73258862 129.42398872 1.73828697 130.43069839 C2.01121167 133.1100677 2.67831816 134.68300608 4 137 C6.02567538 143.07702614 3.71943177 147.55329949 1 153 C-5.11815596 164.36680655 -12.94276706 172.14795289 -25 177 C-26.3254186 177.36353049 -27.65699955 177.70804338 -29 178 C-29 177.01 -29 176.02 -29 175 C-31.31 175 -33.62 175 -36 175 C-33.80958226 173.84250437 -31.66654471 172.87825459 -29.3359375 172.02734375 C-18.46966929 168.02775427 -11.07606243 161.76063272 -5.25390625 151.75 C-1.30841615 143.09696251 -0.55694228 135.63247332 -0.56762695 126.12670898 C-0.55859488 124.74607983 -0.54826414 123.36545865 -0.53674316 121.98484802 C-0.50931643 118.2623376 -0.49990831 114.53997993 -0.49388909 110.81738162 C-0.48446784 106.91758672 -0.4582616 103.01790424 -0.43388367 99.11817932 C-0.3903177 91.7448971 -0.36171008 84.37163683 -0.33856028 76.99826533 C-0.31145532 68.59911871 -0.26754721 60.20008576 -0.22227156 51.8010205 C-0.12956724 34.53407231 -0.05782166 17.26709953 0 0 Z " fill="#5866AB" transform="translate(237,68)"/>
<path d="M0 0 C10.86668104 0.85789587 21.14020324 8.32249366 28.04296875 16.38671875 C33.46884514 23.75619266 38.14389863 32.67922208 38.11352539 42.03417969 C38.11344986 42.81468689 38.11337433 43.59519409 38.11329651 44.39935303 C38.10813522 45.23178528 38.10297394 46.06421753 38.09765625 46.921875 C38.0962413 47.78186096 38.09482635 48.64184692 38.09336853 49.52789307 C38.08778097 52.26863109 38.07523075 55.00928676 38.0625 57.75 C38.05748339 59.6106759 38.05292077 61.47135309 38.04882812 63.33203125 C38.03781561 67.88805246 38.02055951 72.44401228 38 77 C35 75 35 75 34.32348633 73.25366211 C33.92324689 70.46527698 33.85372552 67.75898439 33.82421875 64.94140625 C33.78844727 63.15379883 33.78844727 63.15379883 33.75195312 61.33007812 C33.70958863 58.85368082 33.67801657 56.37707103 33.65820312 53.90039062 C33.33788793 39.99275165 29.80011026 27.25342328 20.05078125 16.9375 C13.39526145 10.87038569 6.86864325 6.74205492 -2 5 C-2 4.67 -2 4.34 -2 4 C-0.02 4 1.96 4 4 4 C4 3.34 4 2.68 4 2 C2.68 1.34 1.36 0.68 0 0 Z " fill="#45C7DB" transform="translate(204,25)"/>
<path d="M0 0 C0.99 0.495 0.99 0.495 2 1 C-0.71182212 3.60334924 -1.89133813 3.99456691 -5.75 4.1875 C-6.8225 4.125625 -7.895 4.06375 -9 4 C-9.33 4.99 -9.66 5.98 -10 7 C-28.05424286 7.07005488 -46.10845048 7.12297087 -64.16279984 7.15543652 C-72.54559114 7.17091098 -80.92829803 7.19201152 -89.31103516 7.22631836 C-96.61671242 7.25620304 -103.92232856 7.27557079 -111.22806525 7.28226548 C-115.0970693 7.28617934 -118.96589846 7.29538934 -122.8348465 7.31719017 C-126.47588574 7.3375407 -130.11667792 7.34383677 -133.75776863 7.33932304 C-135.73227716 7.3405429 -137.70675873 7.35669255 -139.68119812 7.3732605 C-140.85626419 7.36913651 -142.03133026 7.36501251 -143.24200439 7.36076355 C-144.26335102 7.36352893 -145.28469765 7.36629431 -146.33699417 7.36914349 C-149.3740768 6.94814581 -150.74782368 6.02879809 -153 4 C-152.27554436 3.99668985 -151.55108871 3.99337971 -150.80467987 3.98996925 C-133.16004836 3.90867491 -115.51550636 3.81656142 -97.87099457 3.71247292 C-89.33816818 3.66239574 -80.80535115 3.61595232 -72.27246094 3.578125 C-64.83338471 3.5451374 -57.39438227 3.50526895 -49.95538759 3.45720994 C-46.01814896 3.43201212 -42.08095885 3.41021117 -38.1436615 3.39665604 C-34.43364336 3.38377449 -30.72379219 3.36165516 -27.01386642 3.33261681 C-25.01156593 3.31930124 -23.00920846 3.31563134 -21.00686646 3.31230164 C-13.3966104 3.24184513 -7.21676488 2.40558829 0 0 Z " fill="#201147" transform="translate(212,244)"/>
<path d="M0 0 C16.60276447 -0.04672582 33.20550761 -0.08199169 49.80832195 -0.10362434 C57.51733791 -0.11393584 65.226313 -0.12799376 72.93530273 -0.15087891 C79.65464852 -0.17081665 86.37396472 -0.18371736 93.09333926 -0.18817699 C96.65102064 -0.19078372 100.20861735 -0.19690803 103.76627159 -0.21146011 C107.73832152 -0.22757536 111.71028871 -0.22797943 115.68237305 -0.22705078 C117.45075027 -0.23783661 117.45075027 -0.23783661 119.25485229 -0.24884033 C120.88067986 -0.24471634 120.88067986 -0.24471634 122.53935242 -0.24050903 C123.47865947 -0.24235262 124.41796652 -0.24419621 125.38573742 -0.24609566 C128.23848174 0.02244967 130.40409871 0.81555154 133 2 C133 2.66 133 3.32 133 4 C61.225 3.505 61.225 3.505 -12 3 C-12 2.67 -12 2.34 -12 2 C-6.06 1.505 -6.06 1.505 0 1 C0 0.67 0 0.34 0 0 Z " fill="#0B4152" transform="translate(73,21)"/>
<path d="M0 0 C0.33 0 0.66 0 1 0 C1.46842567 8.30154389 1.61562213 15.80650381 -3 23 C-6.47570021 26.79992597 -10.1974203 29.93556866 -14.6328125 32.5546875 C-17.80464507 34.49128495 -19.77160435 37.09713445 -22 40 C-22.48597656 40.57621094 -22.97195312 41.15242188 -23.47265625 41.74609375 C-27.44098156 46.62784432 -29.75539999 51.70409252 -32.01953125 57.55859375 C-33 60 -33 60 -34 61 C-34.04063832 62.66617115 -34.042721 64.33388095 -34 66 C4.51384772 66.24894867 4.51384772 66.24894867 43 65 C44.01650074 60.77163929 43.63907128 58.99523625 42 55 C42.4375 52.84765625 42.4375 52.84765625 43 51 C46.62467325 57.4308719 47.10007044 59.90063392 48 68 C19.95 68 -8.1 68 -37 68 C-35.43917855 50.830964 -27.89931386 38.46067863 -14.76171875 27.375 C-10.4375 24 -10.4375 24 -7 24 C-6.7525 23.21625 -6.505 22.4325 -6.25 21.625 C-5.24712212 18.71665415 -4.13732334 15.9522201 -2.9375 13.125 C-1.12636184 8.68131529 -0.35359577 4.77354295 0 0 Z " fill="#8F7DE2" transform="translate(100,140)"/>
<path d="M0 0 C1.10996338 -0.00128906 2.21992676 -0.00257812 3.36352539 -0.00390625 C12.05021727 0.10593338 19.96811053 1.43733571 28.375 3.484375 C33.08843509 4.61188527 37.55598218 4.72977432 42.375 4.375 C43.695 4.375 45.015 4.375 46.375 4.375 C48.24240684 8.10981368 47.93247571 12.30906305 47.375 16.375 C46.0097829 19.26335111 44.56751925 20.9736694 42.375 23.375 C41.715 23.375 41.055 23.375 40.375 23.375 C40.87 24.9528125 40.87 24.9528125 41.375 26.5625 C42.87571836 32.42798373 42.53988303 38.36592943 42.375 44.375 C42.045 44.375 41.715 44.375 41.375 44.375 C41.31892578 43.12783203 41.31892578 43.12783203 41.26171875 41.85546875 C41.19597656 40.76878906 41.13023437 39.68210938 41.0625 38.5625 C41.00449219 37.48355469 40.94648438 36.40460938 40.88671875 35.29296875 C40.32257952 32.07608322 39.67934529 31.49301009 37.375 29.375 C37.59194915 23.30042373 37.59194915 23.30042373 39.75 20.75 C40.28625 20.29625 40.8225 19.8425 41.375 19.375 C44.1983051 15.50602634 44.51183067 13.09891613 44.375 8.375 C43.44300781 8.33761719 42.51101562 8.30023438 41.55078125 8.26171875 C33.87049226 7.86566745 26.81621639 6.9713509 19.33203125 5.0703125 C15.35835923 4.1359484 11.43314408 3.77416171 7.375 3.375 C6.715 3.045 6.055 2.715 5.375 2.375 C-4.63760055 1.63332589 -15.49883194 4.08192807 -23.29296875 10.609375 C-29.84072274 17.13816139 -29.84072274 17.13816139 -33.625 25.375 C-33.99625 26.550625 -34.3675 27.72625 -34.75 28.9375 C-36.37067097 35.30442168 -36.78486758 39.02244831 -34.625 45.375 C-35.285 46.035 -35.945 46.695 -36.625 47.375 C-36.625 46.715 -36.625 46.055 -36.625 45.375 C-37.285 45.375 -37.945 45.375 -38.625 45.375 C-39.18876667 32.89383235 -38.92197681 23.04510995 -30.4375 13.0625 C-21.25124248 3.5432974 -13.06397986 -0.01565369 0 0 Z " fill="#48BBD3" transform="translate(124.625,63.625)"/>
<path d="M0 0 C0.33 0 0.66 0 1 0 C1.37725083 5.40726189 1.37725083 5.40726189 -0.48748875 8.33714867 C-2.26496996 11.4664928 -2.37922669 13.34090249 -2.38768005 16.91812134 C-2.39758469 18.10390778 -2.40748932 19.28969421 -2.41769409 20.51141357 C-2.41319244 21.80396057 -2.4086908 23.09650757 -2.40405273 24.42822266 C-2.40975833 25.81011507 -2.41672332 27.19200277 -2.42485046 28.57388306 C-2.44278492 32.32220793 -2.44161197 36.0702987 -2.43590808 39.81865358 C-2.43281392 42.95436893 -2.43891183 46.09003946 -2.44494683 49.22574842 C-2.45899393 56.63116845 -2.45743174 64.03647315 -2.44604492 71.44189453 C-2.43458776 79.06099656 -2.44859823 86.6797456 -2.4754414 94.29880106 C-2.49766647 100.85445866 -2.5042198 107.41000604 -2.49836498 113.9656986 C-2.49500747 117.87454317 -2.49732848 121.78316201 -2.51461601 125.69197464 C-2.53019 129.37425468 -2.52601541 133.05601708 -2.50731087 136.73827744 C-2.5019216 138.71733173 -2.51606292 140.69640982 -2.53100586 142.67541504 C-2.45729941 151.68964173 -1.06413194 159.40380209 4 167 C3.625 169.1875 3.625 169.1875 3 171 C2.03124161 169.17215398 1.07553127 167.33739059 0.125 165.5 C-0.40867187 164.4790625 -0.94234375 163.458125 -1.4921875 162.40625 C-5.12540967 154.1985564 -5.29709816 146.67644021 -5.29052734 137.8137207 C-5.29724457 136.5069487 -5.30396179 135.2001767 -5.31088257 133.85380554 C-5.32846158 130.28738546 -5.33323459 126.72106152 -5.33451414 123.15460229 C-5.33594128 120.91986817 -5.34022154 118.68515805 -5.34550858 116.45042992 C-5.36398436 108.63531331 -5.37218255 100.82026468 -5.37060547 93.00512695 C-5.36940578 85.75125866 -5.39048029 78.49768871 -5.4220928 71.24389583 C-5.44835852 64.99133972 -5.45896843 58.73888042 -5.45769465 52.48626965 C-5.45718789 48.76294421 -5.46271047 45.03988402 -5.48405075 41.31661415 C-5.50725266 37.15529056 -5.49784976 32.99462306 -5.48583984 28.83325195 C-5.49707886 27.62085846 -5.50831787 26.40846497 -5.51989746 25.15933228 C-5.45553579 16.33146852 -3.98562065 7.97124131 0 0 Z " fill="#2A4570" transform="translate(28,53)"/>
<path d="M0 0 C2 1 2 1 4 4 C4.66 3.34 5.32 2.68 6 2 C6.27972656 2.76183594 6.55945313 3.52367187 6.84765625 4.30859375 C11.54420205 16.40484195 18.27667386 25.84853756 30.2421875 31.54296875 C33.14164735 32.76074189 36.04817667 33.91616639 39 35 C38.01 35.99 37.02 36.98 36 38 C36.33 38.66 36.66 39.32 37 40 C23.11711532 36.63266201 13.15356397 29.52577467 5.33203125 17.41796875 C2.33418388 11.83546705 0.89107889 6.2508519 0 0 Z " fill="#8870D6" transform="translate(19,207)"/>
<path d="M0 0 C4.1325858 4.88396503 5.24729729 9.84982148 5.26742554 16.15226746 C5.27595551 17.36467102 5.28448547 18.57707458 5.29327393 19.82621765 C5.29191437 21.80172356 5.29191437 21.80172356 5.29052734 23.81713867 C5.29651679 25.22873285 5.3033233 26.64032376 5.31088257 28.0519104 C5.3285113 31.87656949 5.33323673 35.70113901 5.33451414 39.5258348 C5.33593852 41.91967616 5.34021362 44.31349496 5.34550858 46.7073307 C5.36400125 55.07125918 5.37218049 63.43512402 5.37060547 71.79907227 C5.36940553 79.57438841 5.39048072 87.34942632 5.4220928 95.12467211 C5.44832147 101.81621794 5.45896995 108.50767329 5.45769465 115.19927007 C5.45718678 119.18859701 5.46277182 123.17767676 5.48405075 127.16695213 C5.50354376 130.923911 5.50348307 134.68038979 5.48901749 138.43736649 C5.48595933 140.45698141 5.50252967 142.47659696 5.51989746 144.49613953 C5.45061401 154.62566307 3.35297356 162.40021655 -2 171 C-2.33 169.68 -2.66 168.36 -3 167 C-2.34 166.67 -1.68 166.34 -1 166 C0.95038958 162.09922085 1.46282961 158.29736309 2 154 C2.17126561 153.21072994 2.34253122 152.42145988 2.5189867 151.60827255 C3.0123475 148.93304626 3.12862323 146.4860696 3.13371277 143.76763916 C3.13797775 142.7335643 3.14224274 141.69948944 3.14663696 140.63407898 C3.14618378 139.50992081 3.14573059 138.38576263 3.14526367 137.22753906 C3.14862228 136.03491959 3.1519809 134.84230011 3.15544128 133.61354065 C3.16330853 130.34626062 3.16661884 127.07901875 3.16725707 123.81173038 C3.16796975 121.76275679 3.17010839 119.71378977 3.17275429 117.66481781 C3.18200781 110.49350058 3.18608998 103.32220191 3.18530273 96.15087891 C3.18470494 89.50674712 3.19519776 82.86269731 3.2110464 76.21858621 C3.22422095 70.48747771 3.22948238 64.75639562 3.22884732 59.02527213 C3.22859483 55.61484379 3.23130516 52.20448803 3.24202538 48.79407501 C3.27857279 34.70810114 3.16791517 20.93927843 1 7 C0.66562716 4.6668154 0.33198993 2.33352485 0 0 Z " fill="#091A42" transform="translate(232,53)"/>
<path d="M0 0 C-0.33 1.32 -0.66 2.64 -1 4 C-14.39497605 4.04626156 -27.78993321 4.08183768 -41.18497276 4.10362434 C-47.40426828 4.11407879 -53.62350929 4.12826821 -59.84277344 4.15087891 C-65.84035404 4.17254815 -71.8378821 4.1845561 -77.83549881 4.18975449 C-80.12812757 4.19346091 -82.42075333 4.20069821 -84.71335983 4.21146011 C-87.91492771 4.22589636 -91.11627612 4.22798125 -94.31787109 4.22705078 C-95.27380661 4.23424133 -96.22974213 4.24143188 -97.21464539 4.24884033 C-98.51875618 4.24471634 -98.51875618 4.24471634 -99.84921265 4.24050903 C-100.60692648 4.24235262 -101.36464031 4.24419621 -102.14531517 4.24609566 C-104 4 -104 4 -106 2 C-104.97873016 1.98969254 -103.95746033 1.97938507 -102.90524292 1.96876526 C-93.22632857 1.87051802 -83.5474712 1.7677414 -73.86865044 1.66066074 C-68.89406194 1.60576693 -63.91946733 1.55240527 -58.94482422 1.50268555 C-54.13369386 1.45454136 -49.32262518 1.40218914 -44.51156998 1.34705925 C-42.68662196 1.32685975 -40.86165719 1.30811349 -39.03667831 1.29092598 C-29.60596073 1.2011509 -20.24680937 1.00175327 -10.84451294 0.21372986 C-7.21412212 -0.05904897 -3.63828818 -0.07276576 0 0 Z " fill="#9A71EA" transform="translate(208,243)"/>
<path d="M0 0 C0.99 0.495 0.99 0.495 2 1 C-6.1909057 7.86388745 -15.12577516 12.12971423 -25.90985107 12.12025452 C-27.11857376 12.12162918 -28.32729645 12.12300385 -29.57264709 12.12442017 C-30.90878321 12.12088129 -32.24491907 12.11724649 -33.58105469 12.11352539 C-34.99049375 12.11324326 -36.39993297 12.11340175 -37.80937195 12.1139679 C-41.63340617 12.11425488 -45.45740904 12.10837413 -49.28143597 12.10139394 C-53.27862578 12.09514394 -57.27581631 12.0945553 -61.27301025 12.09336853 C-68.84127619 12.09026008 -76.40952768 12.08205322 -83.97778726 12.07201904 C-92.59440091 12.06084283 -101.21101524 12.05534365 -109.82763433 12.05032361 C-127.55176441 12.03987022 -145.27588104 12.02228017 -163 12 C-163 11.67 -163 11.34 -163 11 C-152.77934998 10.83824938 -142.55859585 10.68461903 -132.33773804 10.53664017 C-130.65945206 10.51228893 -128.98116834 10.48778174 -127.30288696 10.46311569 C-108.48674317 10.18687667 -89.6739348 9.9499751 -70.85546875 10.00390625 C-69.79796386 10.00653284 -69.79796386 10.00653284 -68.71909523 10.00921249 C-61.41904851 10.02790943 -54.11942418 10.06474706 -46.81958008 10.125 C-44.45263752 10.13687855 -42.08569419 10.1486061 -39.71875 10.16015625 C-38.67087814 10.17365616 -37.62300629 10.18715607 -36.54338074 10.20106506 C-30.10693686 10.2228949 -24.26146764 9.44795305 -18 8 C-16 7.66666667 -14 7.33333333 -12 7 C-10.66262906 6.68325425 -9.32711192 6.35729936 -8 6 C-8 5.34 -8 4.68 -8 4 C-6.02 3.67 -4.04 3.34 -2 3 C-2 2.34 -2 1.68 -2 1 C-1.34 0.67 -0.68 0.34 0 0 Z " fill="#2B1956" transform="translate(221,231)"/>
<path d="M0 0 C0.99 0 1.98 0 3 0 C6.76961573 10.72363815 7.55518983 20.234956 7.42578125 31.51953125 C7.42116581 33.20677321 7.41825468 34.89402057 7.41691589 36.58126831 C7.40813122 41.06744593 7.37416794 45.55309128 7.33456421 50.0390892 C7.30501144 53.75379109 7.29060055 57.46848673 7.2764225 61.18327427 C7.15736505 92.12583454 6.72527729 123.06576629 6 154 C5.67 154 5.34 154 5 154 C4.99853344 153.28953899 4.99706688 152.57907799 4.99555588 151.84708786 C4.95841956 134.51811651 4.89931484 117.18935748 4.81609726 99.86054611 C4.77637647 91.48026989 4.74394877 83.10008662 4.72900391 74.71972656 C4.71595114 67.41093603 4.68889465 60.10235063 4.64538693 52.79367566 C4.62285309 48.92778682 4.60708442 45.06215022 4.60811615 41.19618988 C4.60886759 37.54839138 4.59072556 33.90114875 4.55883217 30.25349426 C4.54641235 28.29491024 4.55335933 26.33623245 4.56114197 24.37762451 C4.476423 17.10411913 3.44884478 11.13219797 0.85580826 4.32060623 C0 2 0 2 0 0 Z " fill="#0F2A51" transform="translate(238,51)"/>
<path d="M0 0 C1.60488281 0.00483398 1.60488281 0.00483398 3.2421875 0.00976562 C4.35335937 0.01814453 5.46453125 0.02652344 6.609375 0.03515625 C8.29933594 0.04192383 8.29933594 0.04192383 10.0234375 0.04882812 C12.80213717 0.06060228 15.58072909 0.07704785 18.359375 0.09765625 C18.359375 0.42765625 18.359375 0.75765625 18.359375 1.09765625 C55.979375 1.42765625 93.599375 1.75765625 132.359375 2.09765625 C132.359375 2.42765625 132.359375 2.75765625 132.359375 3.09765625 C131.32542304 3.10262147 131.32542304 3.10262147 130.27058315 3.107687 C113.48585306 3.18896447 96.70122072 3.28107245 79.91661739 3.38518333 C71.79965531 3.43527068 63.68270312 3.48171401 55.56567383 3.51953125 C48.48954248 3.55250825 41.41348887 3.5923709 34.33744341 3.64044631 C30.59194415 3.66565464 26.84649608 3.68745253 23.10093498 3.70100021 C18.91605364 3.71626609 14.73141847 3.74690674 10.54663086 3.77880859 C9.30944809 3.78096878 8.07226532 3.78312897 6.79759216 3.78535461 C0.89616156 3.84286539 -4.05754039 4.18962122 -9.640625 6.09765625 C-13.078125 6.22265625 -13.078125 6.22265625 -15.640625 6.09765625 C-15.310625 5.10765625 -14.980625 4.11765625 -14.640625 3.09765625 C-12.990625 3.09765625 -11.340625 3.09765625 -9.640625 3.09765625 C-9.640625 2.43765625 -9.640625 1.77765625 -9.640625 1.09765625 C-6.36436125 0.11545685 -3.41274381 -0.01815289 0 0 Z " fill="#47DFF2" transform="translate(64.640625,24.90234375)"/>
<path d="M0 0 C1.42017586 0.00113055 2.84035405 0.00049058 4.26052856 -0.00177002 C8.08646962 -0.00291003 11.91190131 0.02048233 15.73772478 0.04852581 C19.74686581 0.0736595 23.75602061 0.07589084 27.76522827 0.08062744 C35.34402394 0.09302227 42.92258672 0.12579612 50.50128019 0.1660254 C59.13493032 0.21085238 67.76859201 0.23275752 76.40232968 0.25280714 C94.15035014 0.29453222 111.89815434 0.36481571 129.64599609 0.45410156 C129.64599609 0.78410156 129.64599609 1.11410156 129.64599609 1.45410156 C128.9182303 1.45464633 128.19046452 1.4551911 127.44064522 1.45575237 C109.70345107 1.47074281 91.96651678 1.51328092 74.22946358 1.58619213 C65.65180768 1.62079306 57.07431168 1.64619121 48.49658203 1.6496582 C41.01712084 1.65270493 33.53794477 1.67329031 26.05859363 1.71462613 C22.10105125 1.73589387 18.14391357 1.74858908 14.18631363 1.74025536 C10.45471326 1.73267533 6.72393019 1.74869596 2.99247932 1.78216171 C0.98340537 1.79422615 -1.02576978 1.78185748 -3.03483582 1.76853943 C-10.028104 1.85638823 -15.1030557 2.62378356 -21.17962837 6.18822193 C-23.35400391 7.45410156 -23.35400391 7.45410156 -26.06782341 8.49058819 C-28.51251108 9.22900393 -28.51251108 9.22900393 -29.35400391 11.45410156 C-30.01400391 11.45410156 -30.67400391 11.45410156 -31.35400391 11.45410156 C-31.58087891 12.07285156 -31.80775391 12.69160156 -32.04150391 13.32910156 C-33.73330225 16.06820365 -35.34644552 16.50434628 -38.35400391 17.45410156 C-36.22275049 13.40964377 -33.98585219 11.06535291 -30.29150391 8.39160156 C-29.41365234 7.740625 -28.53580078 7.08964844 -27.63134766 6.41894531 C-18.43670868 0.90654554 -10.65327626 -0.11690164 0 0 Z " fill="#024B5B" transform="translate(72.35400390625,28.5458984375)"/>
<path d="M0 0 C0.33 0 0.66 0 1 0 C1.46842567 8.30154389 1.61562213 15.80650381 -3 23 C-6.47570021 26.79992597 -10.1974203 29.93556866 -14.6328125 32.5546875 C-17.80171974 34.48949885 -19.78117723 37.09189796 -22 40 C-22.49757813 40.62261719 -22.99515625 41.24523437 -23.5078125 41.88671875 C-27.01065465 46.36648421 -29.60548572 50.84258463 -32 56 C-32.66 56 -33.32 56 -34 56 C-34 56.99 -34 57.98 -34 59 C-34.66 59 -35.32 59 -36 59 C-32.0782719 44.92791683 -22.64107867 31.5846472 -10 24 C-9.01 24 -8.02 24 -7 24 C-6.7525 23.21625 -6.505 22.4325 -6.25 21.625 C-5.24712212 18.71665415 -4.13732334 15.9522201 -2.9375 13.125 C-1.12636184 8.68131529 -0.35359577 4.77354295 0 0 Z " fill="#6F86D4" transform="translate(100,140)"/>
<path d="M0 0 C3 2 3 2 3.68040466 3.86138916 C4.00257779 6.01724956 4.12025177 8.03842695 4.11352539 10.21777344 C4.11341209 11.4485965 4.11341209 11.4485965 4.11329651 12.70428467 C4.10813522 13.58046448 4.10297394 14.45664429 4.09765625 15.359375 C4.0962413 16.26375305 4.09482635 17.1681311 4.09336853 18.09991455 C4.08777911 20.98331027 4.07522853 23.86662782 4.0625 26.75 C4.05748363 28.70703013 4.05292096 30.66406147 4.04882812 32.62109375 C4.03781313 37.41409253 4.02055574 42.20703302 4 47 C3.34 46.34 2.68 45.68 2 45 C1.34 45.66 0.68 46.32 0 47 C0 31.49 0 15.98 0 0 Z " fill="#64A7E8" transform="translate(238,96)"/>
<path d="M0 0 C0 0.99 0 1.98 0 3 C-0.99 3.33 -1.98 3.66 -3 4 C-3.16947579 5.41633336 -3.33545507 6.83308533 -3.5 8.25 C-3.5928125 9.03890625 -3.685625 9.8278125 -3.78125 10.640625 C-4.23227307 14.94698764 -4.23227307 14.94698764 -3 19 C-2.86584528 21.6723621 -2.95681459 24.32250488 -3 27 C-2.01 27 -1.02 27 0 27 C0 28.32 0 29.64 0 31 C-2.875 31.125 -2.875 31.125 -6 31 C-8.89840389 28.10159611 -8.33241455 25.37684175 -8.4609375 21.41015625 C-8.79198671 18.82963796 -8.79198671 18.82963796 -11.0390625 17.18359375 C-11.68617188 16.79300781 -12.33328125 16.40242188 -13 16 C-12.67 15.01 -12.34 14.02 -12 13 C-11.01 12.67 -10.02 12.34 -9 12 C-8.96261719 11.30132812 -8.92523438 10.60265625 -8.88671875 9.8828125 C-8.82097656 8.97273437 -8.75523437 8.06265625 -8.6875 7.125 C-8.62949219 6.22007812 -8.57148438 5.31515625 -8.51171875 4.3828125 C-7.49840245 -0.33568323 -4.1147837 -0.22242074 0 0 Z " fill="#6B73B2" transform="translate(162,172)"/>
<path d="M0 0 C5.625 -0.25 5.625 -0.25 9 2 C9.45298506 4.57853035 9.50254864 7.07306089 9.59375 9.6875 C9.7278125 10.450625 9.861875 11.21375 10 12 C10.99 12.66 11.98 13.32 13 14 C12 17 12 17 9 19 C8.58583601 21.58089562 8.56084161 24.076065 8.50390625 26.6875 C8 29 8 29 6.21484375 30.3125 C4 31 4 31 0 31 C0 29.68 0 28.36 0 27 C0.99 26.67 1.98 26.34 3 26 C3.80563638 23.89415562 3.80563638 23.89415562 4.1875 21.4375 C4.34605469 20.61121094 4.50460938 19.78492188 4.66796875 18.93359375 C4.77753906 18.29550781 4.88710937 17.65742188 5 17 C5.66 17 6.32 17 7 17 C6.505 16.34 6.01 15.68 5.5 15 C3.51683379 11.03366759 3.77642539 8.39696738 4 4 C2.68 3.67 1.36 3.34 0 3 C0 2.01 0 1.02 0 0 Z " fill="#8087D2" transform="translate(184,172)"/>
<path d="M0 0 C0.99 0.495 0.99 0.495 2 1 C-4.43840325 6.92333099 -14.86183627 5.13625652 -23.01342773 5.11352539 C-24.4331614 5.11324301 -25.85289521 5.11340225 -27.27262878 5.1139679 C-31.11094774 5.11425389 -34.94923521 5.10838923 -38.78754687 5.10139394 C-42.80473847 5.09512736 -46.82193085 5.09455399 -50.83912659 5.09336853 C-58.43916698 5.09026494 -66.03919293 5.08206469 -73.63922697 5.07201904 C-82.29460353 5.06082767 -90.94998078 5.05533984 -99.60536277 5.05032361 C-117.40358336 5.03988124 -135.20179052 5.02230067 -153 5 C-153 4.67 -153 4.34 -153 4 C-152.27554436 3.99668985 -151.55108871 3.99337971 -150.80467987 3.98996925 C-133.16004836 3.90867491 -115.51550636 3.81656142 -97.87099457 3.71247292 C-89.33816818 3.66239574 -80.80535115 3.61595232 -72.27246094 3.578125 C-64.83338471 3.5451374 -57.39438227 3.50526895 -49.95538759 3.45720994 C-46.01814896 3.43201212 -42.08095885 3.41021117 -38.1436615 3.39665604 C-34.43364336 3.38377449 -30.72379219 3.36165516 -27.01386642 3.33261681 C-25.01156593 3.31930124 -23.00920846 3.31563134 -21.00686646 3.31230164 C-13.3966104 3.24184513 -7.21676488 2.40558829 0 0 Z " fill="#4B3182" transform="translate(212,244)"/>
<path d="M0 0 C18.93240049 -0.04673028 37.86478927 -0.08199389 56.79723549 -0.10362434 C65.58798781 -0.11393489 74.37870428 -0.127991 83.16943359 -0.15087891 C90.83184183 -0.17081955 98.49422411 -0.18371805 106.15665758 -0.18817699 C110.21347605 -0.19078322 114.27022026 -0.19690442 118.32701492 -0.21146011 C122.14695195 -0.22505467 125.96678424 -0.22921885 129.78674316 -0.22621536 C131.18715357 -0.22676469 132.58756755 -0.230731 133.987957 -0.23841095 C135.90386151 -0.24840094 137.81982247 -0.24476831 139.73574829 -0.24050903 C140.80687174 -0.24235262 141.87799519 -0.24419621 142.98157692 -0.24609566 C147.35186248 0.11021897 150.85580971 0.85580971 154 4 C146.25 3.125 146.25 3.125 144 2 C142.09976631 1.89439014 140.19582502 1.85336589 138.29269409 1.84178162 C136.47111282 1.82709839 136.47111282 1.82709839 134.61273193 1.81211853 C133.25988809 1.80621398 131.90704383 1.80040356 130.55419922 1.79467773 C129.13520012 1.78510161 127.7162039 1.77509169 126.29721069 1.76467896 C122.43796639 1.73759499 118.57870982 1.71660437 114.71942282 1.69667697 C110.68883103 1.67483892 106.65827723 1.64743958 102.62771606 1.62062073 C94.99212088 1.57066429 87.35650465 1.52573643 79.72086823 1.48259836 C71.02930559 1.43325117 62.33778106 1.37832372 53.64625525 1.32291877 C35.76420553 1.20905344 17.88211987 1.10222433 0 1 C0 0.67 0 0.34 0 0 Z " fill="#002533" transform="translate(59,30)"/>
<path d="M0 0 C2.74325782 4.00572595 2.25301454 8.26866999 2.1953125 12.921875 C2.1924826 13.78186096 2.18965271 14.64184692 2.18673706 15.52789307 C2.1755615 18.26873821 2.15046179 21.00925398 2.125 23.75 C2.1149668 25.61067236 2.10584155 27.47134985 2.09765625 29.33203125 C2.07563076 33.88814732 2.04111897 38.44401786 2 43 C-1 41 -1 41 -1.66772461 39.35058594 C-2.13619514 36.03652693 -2.23677652 32.73157081 -2.31640625 29.390625 C-2.33718735 28.66381531 -2.35796844 27.93700562 -2.37937927 27.18817139 C-2.44455512 24.87554009 -2.5036104 22.56279907 -2.5625 20.25 C-2.60571566 18.67837425 -2.64933092 17.10675944 -2.69335938 15.53515625 C-2.80020356 11.69021547 -2.90156024 7.84516476 -3 4 C-2.34 4.66 -1.68 5.32 -1 6 C-0.67 4.02 -0.34 2.04 0 0 Z " fill="#4FC3EB" transform="translate(240,59)"/>
<path d="M0 0 C1.32 0 2.64 0 4 0 C2.4291958 8.85362365 0.01088724 17.4167131 -2.45922852 26.05224609 C-3.0075355 28.02714141 -3.51140983 30.00957077 -4 32 C-5.65 32 -7.3 32 -9 32 C-8.36421098 25.04668832 -6.11194343 18.66845163 -3.9375 12.0625 C-3.56044922 10.90169922 -3.18339844 9.74089844 -2.79492188 8.54492188 C-1.86837476 5.69490986 -0.93660127 2.84672049 0 0 Z " fill="#7870C5" transform="translate(176,171)"/>
<path d="M0 0 C0.33 0 0.66 0 1 0 C1.55676739 15.09458251 1.55676739 15.09458251 -2.375 19.5625 C-3.179375 20.2740625 -3.179375 20.2740625 -4 21 C-4.598125 22.134375 -5.19625 23.26875 -5.8125 24.4375 C-7.86084618 28.16674094 -10.36253308 29.77297944 -14 32 C-15.2065625 33.2684375 -15.2065625 33.2684375 -16.4375 34.5625 C-19.55045673 37.52360518 -21.95044127 38.62467817 -26 40 C-26.66 39.67 -27.32 39.34 -28 39 C-27.21496094 38.5153125 -26.42992187 38.030625 -25.62109375 37.53125 C-13.81523187 29.99867555 -5.12264633 20.81872601 -1.1171875 6.94140625 C-0.65099874 4.62687754 -0.25947238 2.34584209 0 0 Z " fill="#272053" transform="translate(242,205)"/>
<path d="M0 0 C1.98960773 3.3183077 2.2361745 5.79959699 2.1953125 9.640625 C2.18564453 11.24550781 2.18564453 11.24550781 2.17578125 12.8828125 C2.15902344 13.99398437 2.14226562 15.10515625 2.125 16.25 C2.11597656 17.37664062 2.10695312 18.50328125 2.09765625 19.6640625 C2.07410658 22.44292365 2.0412168 25.2213539 2 28 C1.34 27.67 0.68 27.34 0 27 C-0.33 33.93 -0.66 40.86 -1 48 C-1.33 48 -1.66 48 -2 48 C-2.04944073 41.80697799 -2.08573905 35.61407091 -2.10986328 29.42089844 C-2.11992034 27.31410725 -2.13356768 25.20733001 -2.15087891 23.10058594 C-2.17514 20.07223059 -2.18648608 17.04405981 -2.1953125 14.015625 C-2.20563507 13.07382385 -2.21595764 12.13202271 -2.22659302 11.16168213 C-2.22674408 10.28107117 -2.22689514 9.40046021 -2.22705078 8.49316406 C-2.231492 7.72039124 -2.23593323 6.94761841 -2.24050903 6.15142822 C-1.96961352 3.72818347 -1.20548093 2.10226798 0 0 Z " fill="#778FE2" transform="translate(240,139)"/>
<path d="M0 0 C0.33 0.66 0.66 1.32 1 2 C0.67 2.99 0.34 3.98 0 5 C0.99 5.33 1.98 5.66 3 6 C-3.06574858 10.62212575 -8.56703846 14.1148286 -16 16 C-16 15.01 -16 14.02 -16 13 C-18.31 13 -20.62 13 -23 13 C-19.81141841 11.32580441 -16.54621611 10.04347219 -13.1875 8.75 C-7.80456748 6.54280001 -4.14427561 4.05008753 0 0 Z " fill="#876CD4" transform="translate(224,230)"/>
<path d="M0 0 C0.33 0 0.66 0 1 0 C1.35669753 7.1339505 1.35669753 7.1339505 0.078125 10.23828125 C-3.78830693 13.51602712 -9.1794436 12.46968535 -14.04101562 12.40039062 C-19.244924 12.40244141 -19.244924 12.40244141 -23.48828125 15.1953125 C-26.61586771 20.99791476 -28.96985457 28.37266047 -28 35 C-26.62073227 37.34261608 -26.62073227 37.34261608 -25 39 C-26.32 39 -27.64 39 -29 39 C-32.13939961 30.73842207 -30.16009329 22.85736926 -27.16015625 14.72265625 C-24.86312777 11.31191699 -20.81030727 10.15705666 -17 9 C-14.375 9.3125 -14.375 9.3125 -12 10 C-8.46717818 9.63453567 -5.36910081 9.1230336 -2 8 C-2 7.34 -2 6.68 -2 6 C-1.34 6 -0.68 6 0 6 C0 4.02 0 2.04 0 0 Z " fill="#7497E1" transform="translate(163,145)"/>
<path d="M0 0 C4.92870895 5.82483785 5.29449266 11.75829463 5.23046875 19.0546875 C5.23001053 19.91506622 5.22955231 20.77544495 5.2290802 21.66189575 C5.22606976 23.47562037 5.2182198 25.28934268 5.20581055 27.10302734 C5.18760474 29.85914419 5.18530083 32.61492312 5.18554688 35.37109375 C5.18062866 37.14062787 5.17479903 38.91015973 5.16796875 40.6796875 C5.16685593 41.49452606 5.1657431 42.30936462 5.16459656 43.14889526 C5.12349462 48.17955185 4.71345647 53.01897077 4 58 C3.67 58 3.34 58 3 58 C3.01047363 57.05906494 3.02094727 56.11812988 3.03173828 55.14868164 C3.42660929 30.99191606 3.42660929 30.99191606 1 7 C0.66341723 4.66713318 0.32918097 2.33392276 0 0 Z " fill="#062139" transform="translate(232,53)"/>
<path d="M0 0 C3 1 3 1 4 3 C4.67542101 8.27793272 4.73524333 12.65173827 1.625 17.125 C0.75875 18.07375 -0.1075 19.0225 -1 20 C-1.66 20 -2.32 20 -3 20 C-2.67 21.051875 -2.34 22.10375 -2 23.1875 C-0.49928164 29.05298373 -0.83511697 34.99092943 -1 41 C-1.33 41 -1.66 41 -2 41 C-2.03738281 40.16855469 -2.07476562 39.33710937 -2.11328125 38.48046875 C-2.17902344 37.39378906 -2.24476563 36.30710938 -2.3125 35.1875 C-2.37050781 34.10855469 -2.42851562 33.02960938 -2.48828125 31.91796875 C-3.05242048 28.70108322 -3.69565471 28.11801009 -6 26 C-5.78305085 19.92542373 -5.78305085 19.92542373 -3.625 17.375 C-3.08875 16.92125 -2.5525 16.4675 -2 16 C1.40161178 11.59050325 1.44133428 8.38427816 1 3 C0.34 2.34 -0.32 1.68 -1 1 C-0.67 0.67 -0.34 0.34 0 0 Z " fill="#4FB4CA" transform="translate(168,67)"/>
<path d="M0 0 C2 1 2 1 4 4 C4.66 3.34 5.32 2.68 6 2 C6.34933594 2.84304687 6.69867188 3.68609375 7.05859375 4.5546875 C7.51363281 5.65039062 7.96867187 6.74609375 8.4375 7.875 C8.88996094 8.96554688 9.34242187 10.05609375 9.80859375 11.1796875 C10.49543463 12.80558624 11.21065887 14.42131774 12 16 C10.35 15.67 8.7 15.34 7 15 C7.33 16.65 7.66 18.3 8 20 C3.40536888 14.30265742 0.76536173 7.27093642 0 0 Z " fill="#7767CA" transform="translate(19,207)"/>
<path d="M0 0 C2.3125 0.125 2.3125 0.125 5 1 C9.15017879 6.2950557 8.27879645 12.61865894 8 19 C7.34 17.68 6.68 16.36 6 15 C5.34 15 4.68 15 4 15 C3.32243118 13.44219668 2.65840543 11.87849904 2 10.3125 C1.62875 9.44238281 1.2575 8.57226562 0.875 7.67578125 C-0.01870488 4.9427998 -0.16449676 2.85299066 0 0 Z " fill="#4DC6DE" transform="translate(232,48)"/>
<path d="M0 0 C0.33 0 0.66 0 1 0 C1.3771545 5.40588117 1.3771545 5.40588117 -0.48469543 8.33879089 C-2.25462656 11.44718041 -2.3936531 13.33735452 -2.43237305 16.8918457 C-2.45216721 18.05267166 -2.47196136 19.21349762 -2.49235535 20.40950012 C-2.49874527 21.65237289 -2.50513519 22.89524567 -2.51171875 24.17578125 C-2.52966995 25.45607712 -2.54762115 26.73637299 -2.56611633 28.0554657 C-2.61350384 31.44689853 -2.64338534 34.83826536 -2.66955566 38.22991943 C-2.69941845 41.6957299 -2.74592897 45.16131319 -2.79101562 48.62695312 C-2.8759892 55.41786374 -2.9443222 62.20878943 -3 69 C-3.33 69 -3.66 69 -4 69 C-4.09316446 61.4801915 -4.16399844 53.96044374 -4.20724869 46.44018745 C-4.22801927 42.94722053 -4.25614006 39.45465186 -4.30175781 35.96191406 C-4.35400946 31.93551061 -4.37303198 27.90951773 -4.390625 23.8828125 C-4.41127014 22.64387238 -4.43191528 21.40493225 -4.45318604 20.12844849 C-4.45511877 12.57682123 -3.42674431 6.76157289 0 0 Z " fill="#03233C" transform="translate(28,53)"/>
<path d="M0 0 C7.45860856 -0.04643926 14.91718569 -0.08192792 22.37590981 -0.10362434 C25.83968862 -0.11404008 29.30336815 -0.12815859 32.76708984 -0.15087891 C36.75356844 -0.17686317 40.74000752 -0.18649109 44.7265625 -0.1953125 C46.58312973 -0.21079636 46.58312973 -0.21079636 48.47720337 -0.22659302 C49.6379538 -0.22674408 50.79870422 -0.22689514 51.99462891 -0.22705078 C53.52018906 -0.23371262 53.52018906 -0.23371262 55.0765686 -0.24050903 C59.40649021 0.11571115 62.88718309 0.88718309 66 4 C58.25 3.125 58.25 3.125 56 2 C54.2134547 1.88055524 52.42263749 1.82277682 50.63232422 1.79467773 C48.95080765 1.7647599 48.95080765 1.7647599 47.23532104 1.73423767 C45.41340744 1.70916893 45.41340744 1.70916893 43.5546875 1.68359375 C42.31453888 1.66281265 41.07439026 1.64203156 39.79666138 1.62062073 C36.49888177 1.56622295 33.2010728 1.51599905 29.90319824 1.46777344 C26.53827347 1.41754766 23.1734395 1.36186723 19.80859375 1.30664062 C13.20580146 1.19938443 6.60294128 1.09762811 0 1 C0 0.67 0 0.34 0 0 Z " fill="#002837" transform="translate(147,30)"/>
<path d="M0 0 C4.72065967 1.54269924 9.41664092 3.07794619 14 5 C13.01 5.99 12.02 6.98 11 8 C11.33 8.66 11.66 9.32 12 10 C6.3856009 8.43551329 1.13189662 6.83604813 -4 4 C-2.68 3.34 -1.36 2.68 0 2 C0 1.34 0 0.68 0 0 Z " fill="#7E61C9" transform="translate(44,237)"/>
<path d="M0 0 C-1.65 0.33 -3.3 0.66 -5 1 C-5 1.66 -5 2.32 -5 3 C-6.134375 3.474375 -7.26875 3.94875 -8.4375 4.4375 C-13.24212351 6.78851684 -16.44913922 10.25392269 -20.01953125 14.171875 C-22 16 -22 16 -25 16 C-21.24583903 7.81235369 -14.59608128 3.90714231 -6.76953125 -0.03125 C-3.89988984 -1.03501738 -2.77210821 -1.11148969 0 0 Z " fill="#40ACC2" transform="translate(117,65)"/>
<path d="M0 0 C0.33 0 0.66 0 1 0 C1.33 5.94 1.66 11.88 2 18 C2.66 17.34 3.32 16.68 4 16 C4 21.28 4 26.56 4 32 C3.34 31.34 2.68 30.68 2 30 C1.34 30.66 0.68 31.32 0 32 C0 21.44 0 10.88 0 0 Z " fill="#6D9DE3" transform="translate(238,111)"/>
<path d="M0 0 C0.33 0 0.66 0 1 0 C1.10024553 3.928468 1.17210244 7.85642234 1.21972656 11.78588867 C1.24930134 13.76572908 1.30017533 15.74521501 1.3515625 17.72460938 C1.45829036 28.2639854 -0.44425942 36.05692797 -6 45 C-6.33 43.68 -6.66 42.36 -7 41 C-6.01 40.505 -6.01 40.505 -5 40 C-3.04961042 36.09922085 -2.53717039 32.29736309 -2 28 C-1.83250244 27.21665283 -1.66500488 26.43330566 -1.49243164 25.6262207 C-0.97783578 22.8817945 -0.79266499 20.26957627 -0.68359375 17.48046875 C-0.64169922 16.45888672 -0.59980469 15.43730469 -0.55664062 14.38476562 C-0.51732422 13.32966797 -0.47800781 12.27457031 -0.4375 11.1875 C-0.39431641 10.11306641 -0.35113281 9.03863281 -0.30664062 7.93164062 C-0.20089017 5.28787918 -0.09879767 2.6440289 0 0 Z " fill="#191746" transform="translate(236,179)"/>
<path d="M0 0 C0.33 0 0.66 0 1 0 C1.33 4.95 1.66 9.9 2 15 C2.66 14.01 3.32 13.02 4 12 C4 17.94 4 23.88 4 30 C1 28 1 28 0.31860352 26.22753906 C-0.06051563 23.57690067 -0.11190298 21.03775976 -0.09765625 18.359375 C-0.09443359 17.28945312 -0.09121094 16.21953125 -0.08789062 15.1171875 C-0.07951172 14.00601563 -0.07113281 12.89484375 -0.0625 11.75 C-0.05798828 10.62335938 -0.05347656 9.49671875 -0.04882812 8.3359375 C-0.03705397 5.55723783 -0.0206084 2.77864591 0 0 Z " fill="#59B4E5" transform="translate(238,72)"/>
<path d="M0 0 C0 3.63 0 7.26 0 11 C-4 13 -4 13 -8 13 C-8 11.68 -8 10.36 -8 9 C-7.01 8.67 -6.02 8.34 -5 8 C-4.67 5.69 -4.34 3.38 -4 1 C-1 0 -1 0 0 0 Z " fill="#8C85D7" transform="translate(192,190)"/>
<path d="M0 0 C0.66 0.33 1.32 0.66 2 1 C-7.46873886 8.93469736 -15.62247357 11.76562019 -28 11 C-28 10.67 -28 10.34 -28 10 C-22.67698343 8.91646105 -17.35858074 7.89309679 -12 7 C-10.66262906 6.68325425 -9.32711192 6.35729936 -8 6 C-8 5.34 -8 4.68 -8 4 C-6.02 3.67 -4.04 3.34 -2 3 C-2 2.34 -2 1.68 -2 1 C-1.34 0.67 -0.68 0.34 0 0 Z " fill="#1E1546" transform="translate(221,231)"/>
<path d="M0 0 C0.99 0 1.98 0 3 0 C2.55376936 5.0572806 0.49357358 7.50642642 -3 11 C-4.32 11 -5.64 11 -7 11 C-6.8125 8.1875 -6.8125 8.1875 -6 5 C-3.5 3.25 -3.5 3.25 -1 2 C-0.67 1.34 -0.34 0.68 0 0 Z " fill="#927CDF" transform="translate(231,224)"/>
<path d="M0 0 C0.33 0 0.66 0 1 0 C1.66 1.98 2.32 3.96 3 6 C3.33 4.02 3.66 2.04 4 0 C4.33 0 4.66 0 5 0 C5 2.64 5 5.28 5 8 C5.99 8 6.98 8 8 8 C8 9.32 8 10.64 8 12 C5.125 12.125 5.125 12.125 2 12 C0 10 0 10 -0.1953125 7.6171875 C-0.17210937 6.71226562 -0.14890625 5.80734375 -0.125 4.875 C-0.10695312 3.96492187 -0.08890625 3.05484375 -0.0703125 2.1171875 C-0.04710937 1.41851562 -0.02390625 0.71984375 0 0 Z " fill="#7064B9" transform="translate(154,191)"/>
<path d="M0 0 C1.32 0 2.64 0 4 0 C3.71572583 1.58467728 3.42225182 3.1677057 3.125 4.75 C2.96257812 5.63171875 2.80015625 6.5134375 2.6328125 7.421875 C2.03203736 9.86947744 1.22002883 11.80599857 0 14 C-0.66 13.67 -1.32 13.34 -2 13 C-2.19294408 8.17639811 -1.75747614 4.50353262 0 0 Z " fill="#7D89C6" transform="translate(176,171)"/>
<path d="M0 0 C0.33 0 0.66 0 1 0 C1.02578125 0.88300781 1.0515625 1.76601562 1.078125 2.67578125 C1.51623827 11.94585974 2.77594758 20.16392137 8 28 C7.625 30.1875 7.625 30.1875 7 32 C6.01836578 30.06374902 5.03977546 28.12595461 4.0625 26.1875 C3.51722656 25.10855469 2.97195312 24.02960938 2.41015625 22.91796875 C0.72740109 19.43592413 -0.12643569 16.81594725 -0.09765625 12.98828125 C-0.09443359 12.23095703 -0.09121094 11.47363281 -0.08789062 10.69335938 C-0.07951172 9.90767578 -0.07113281 9.12199219 -0.0625 8.3125 C-0.05798828 7.51521484 -0.05347656 6.71792969 -0.04882812 5.89648438 C-0.0370585 3.93095743 -0.01912348 1.96546915 0 0 Z " fill="#1C1849" transform="translate(24,192)"/>
<path d="M0 0 C1 2 1 2 0.328125 4.20703125 C-3.62589928 13.76258993 -3.62589928 13.76258993 -6 17 C-6.66 17 -7.32 17 -8 17 C-8 17.99 -8 18.98 -8 20 C-8.66 20 -9.32 20 -10 20 C-7.88238204 12.4014885 -4.43347991 6.49838836 0 0 Z " fill="#7471C5" transform="translate(74,179)"/>
<path d="M0 0 C0.33 0 0.66 0 1 0 C1.04898438 0.92941406 1.09796875 1.85882813 1.1484375 2.81640625 C1.69677146 12.07660933 1.69677146 12.07660933 4 21 C4.66 21 5.32 21 6 21 C8.4294516 24.6441774 8.16179575 26.71241272 8 31 C7.67 31 7.34 31 7 31 C6.79375 30.236875 6.5875 29.47375 6.375 28.6875 C5.19024454 25.11642553 5.19024454 25.11642553 3.49609375 22.64453125 C-1.46443085 14.85270955 -1.4464788 9.00761798 0 0 Z " fill="#0B2E4A" transform="translate(167,99)"/>
<path d="M0 0 C5.625 -0.25 5.625 -0.25 9 2 C9.29296875 4.1640625 9.29296875 4.1640625 9.1875 6.625 C9.16042969 7.44226563 9.13335937 8.25953125 9.10546875 9.1015625 C9.07066406 9.72804687 9.03585938 10.35453125 9 11 C8.67 11 8.34 11 8 11 C7.67 9.02 7.34 7.04 7 5 C6.34 5 5.68 5 5 5 C5 7.31 5 9.62 5 12 C4.67 12 4.34 12 4 12 C4 9.36 4 6.72 4 4 C2.68 3.67 1.36 3.34 0 3 C0 2.01 0 1.02 0 0 Z " fill="#6878AF" transform="translate(184,172)"/>
<path d="M0 0 C2.82901615 3.19801825 3.73357234 5.73715752 4 10 C3.0625 12.375 3.0625 12.375 2 14 C1.67 12.02 1.34 10.04 1 8 C-1.18975773 11.28463659 -1.99806563 14.20696275 -3 18 C-3.66 18 -4.32 18 -5 18 C-3.36959185 11.98922864 -1.72852643 5.98336072 0 0 Z " fill="#786EC9" transform="translate(238,201)"/>
<path d="M0 0 C2.61382886 3.92074329 2.29386386 7.44511017 2 12 C1.34 12.66 0.68 13.32 0 14 C-0.33 11.36 -0.66 8.72 -1 6 C-1.99 5.67 -2.98 5.34 -4 5 C-4.6875 2.9375 -4.6875 2.9375 -5 1 C-2 0 -2 0 0 0 Z " fill="#7878C8" transform="translate(156,185)"/>
<path d="M0 0 C1.25180279 4.21919103 0.67252421 7.96088565 0.0625 12.25 C-0.03740234 12.99507812 -0.13730469 13.74015625 -0.24023438 14.5078125 C-0.48680156 16.33945442 -0.74250391 18.16986251 -1 20 C-1.33 20 -1.66 20 -2 20 C-2.33 17.36 -2.66 14.72 -3 12 C-3.33 12 -3.66 12 -4 12 C-4 8.7 -4 5.4 -4 2 C-3.34 1.67 -2.68 1.34 -2 1 C-2 1.66 -2 2.32 -2 3 C-1.34 3 -0.68 3 0 3 C0 2.01 0 1.02 0 0 Z " fill="#51C9E2" transform="translate(24,59)"/>
<path d="M0 0 C2.25 0.125 2.25 0.125 5 1 C7.3125 4.0625 7.3125 4.0625 9 7 C7.68 7 6.36 7 5 7 C5.33 8.32 5.66 9.64 6 11 C1.9957657 7.50912907 0.37328935 5.35048061 0 0 Z " fill="#806CD4" transform="translate(26,222)"/>
<path d="M0 0 C0.33 0 0.66 0 1 0 C1.46842028 8.30144822 1.42539514 15.70327825 -3 23 C-3.99 23.66 -4.98 24.32 -6 25 C-3.26277372 14.74452555 -3.26277372 14.74452555 -1.875 10.8125 C-0.75333229 7.20713949 -0.38837953 3.75433549 0 0 Z " fill="#6C94D7" transform="translate(100,140)"/>
<path d="M0 0 C2 3.75 2 3.75 2 6 C-8.23 6 -18.46 6 -29 6 C-29 5.67 -29 5.34 -29 5 C-20.09 4.67 -11.18 4.34 -2 4 C-1.34 2.68 -0.68 1.36 0 0 Z " fill="#907AEF" transform="translate(145,201)"/>
<path d="M0 0 C0.33 1.32 0.66 2.64 1 4 C0.01 4 -0.98 4 -2 4 C-2.02126953 5.13888672 -2.02126953 5.13888672 -2.04296875 6.30078125 C-2.43403499 14.44975625 -2.43403499 14.44975625 -5.25 17.1875 C-8.00676225 18.00199794 -10.14429333 18.24477486 -13 18 C-10.66785852 16.79371992 -8.50357861 15.8345262 -6 15 C-5.98582031 14.33613281 -5.97164062 13.67226562 -5.95703125 12.98828125 C-5.51896425 4.87812194 -5.51896425 4.87812194 -2.4375 1.875 C-1.633125 1.25625 -0.82875 0.6375 0 0 Z " fill="#272755" transform="translate(197,186)"/>
<path d="M0 0 C0.66 0.33 1.32 0.66 2 1 C1.49339844 1.804375 1.49339844 1.804375 0.9765625 2.625 C-3.50195598 10.49476658 -4.26392245 18.14509688 -5 27 C-5.33 27 -5.66 27 -6 27 C-6.96346103 8.35167655 -6.96346103 8.35167655 -1 1 C-0.67 0.67 -0.34 0.34 0 0 Z " fill="#082B40" transform="translate(91,78)"/>
<path d="M0 0 C0.84884766 0.34417969 0.84884766 0.34417969 1.71484375 0.6953125 C-0.28515625 2.6953125 -0.28515625 2.6953125 -2.34765625 3.1953125 C-2.98703125 3.3603125 -3.62640625 3.5253125 -4.28515625 3.6953125 C-4.61515625 4.3553125 -4.94515625 5.0153125 -5.28515625 5.6953125 C-5.94515625 5.6953125 -6.60515625 5.6953125 -7.28515625 5.6953125 C-7.51203125 6.3140625 -7.73890625 6.9328125 -7.97265625 7.5703125 C-9.6644546 10.30941459 -11.27759786 10.74555722 -14.28515625 11.6953125 C-12.07318801 6.82898236 -5.865765 -0.782102 0 0 Z " fill="#083F4D" transform="translate(48.28515625,34.3046875)"/>
<path d="M0 0 C0.66 0.33 1.32 0.66 2 1 C-3.73435842 6.27560975 -12.12649111 5.13092557 -19.4375 5.0625 C-20.35982422 5.05798828 -21.28214844 5.05347656 -22.23242188 5.04882812 C-24.48835048 5.03713938 -26.74413967 5.02075455 -29 5 C-29 4.67 -29 4.34 -29 4 C-27.7934375 3.95101562 -26.586875 3.90203125 -25.34375 3.8515625 C-23.72914694 3.77646468 -22.11456461 3.70091997 -20.5 3.625 C-19.70851562 3.5940625 -18.91703125 3.563125 -18.1015625 3.53125 C-11.71879738 3.21734352 -6.07894245 2.02631415 0 0 Z " fill="#46317B" transform="translate(212,244)"/>
<path d="M0 0 C0.33 0 0.66 0 1 0 C1.17081364 4.44115477 0.95398692 7.09202617 -1 11 C-1.44811137 13.35564596 -1.44811137 13.35564596 -1.625 15.75 C-1.69976562 16.54921875 -1.77453125 17.3484375 -1.8515625 18.171875 C-1.90054688 18.77515625 -1.94953125 19.3784375 -2 20 C-2.66 19.67 -3.32 19.34 -4 19 C-3.63176001 12.09232563 -2.76081837 6.3618858 0 0 Z " fill="#15214A" transform="translate(138,161)"/>
<path d="M0 0 C-0.33 1.32 -0.66 2.64 -1 4 C-3.31 4.66 -5.62 5.32 -8 6 C-8 5.01 -8 4.02 -8 3 C-10.31 3 -12.62 3 -15 3 C-15 2.67 -15 2.34 -15 2 C-13.2508503 1.66223316 -11.50063855 1.32996329 -9.75 1 C-8.77546875 0.814375 -7.8009375 0.62875 -6.796875 0.4375 C-4 0 -4 0 0 0 Z " fill="#8B6ADA" transform="translate(216,240)"/>
<path d="M0 0 C0.66 0.33 1.32 0.66 2 1 C1.67 1.99 1.34 2.98 1 4 C1.99 4.33 2.98 4.66 4 5 C2.02 5.99 0.04 6.98 -2 8 C-2 7.01 -2 6.02 -2 5 C-3.0725 5.350625 -4.145 5.70125 -5.25 6.0625 C-8.78720743 6.94680186 -9.74811124 7.02880551 -13 6 C-12.14535156 5.65066406 -11.29070312 5.30132812 -10.41015625 4.94140625 C-9.30542969 4.48636719 -8.20070312 4.03132812 -7.0625 3.5625 C-5.96035156 3.11003906 -4.85820312 2.65757812 -3.72265625 2.19140625 C-1.13431084 1.25575392 -1.13431084 1.25575392 0 0 Z " fill="#7A5FBE" transform="translate(218,235)"/>
<path d="M0 0 C-1 1 -1 1 -3.5625 1.0625 C-4.7690625 1.0315625 -4.7690625 1.0315625 -6 1 C-5.96519531 1.68964844 -5.93039063 2.37929687 -5.89453125 3.08984375 C-5.7045418 9.68519186 -6.47101749 14.90334573 -9 21 C-9.33 21 -9.66 21 -10 21 C-10.18262291 15.70393571 -9.81674579 12.02276777 -8 7 C-7.62468554 4.67305036 -7.28082798 2.34023315 -7 0 C-2.25 -1.125 -2.25 -1.125 0 0 Z " fill="#0B2343" transform="translate(174,131)"/>
<path d="M0 0 C8.57142857 -0.28571429 8.57142857 -0.28571429 12 2 C12 2.66 12 3.32 12 4 C8.37 4 4.74 4 1 4 C0.67 2.68 0.34 1.36 0 0 Z " fill="#40D5E7" transform="translate(196,25)"/>
<path d="M0 0 C2.4375 0.375 2.4375 0.375 5 1 C5.33 1.66 5.66 2.32 6 3 C7.82287297 3.93845254 9.68364553 4.80435092 11.5625 5.625 C13.08037109 6.29402344 13.08037109 6.29402344 14.62890625 6.9765625 C15.80259766 7.48316406 15.80259766 7.48316406 17 8 C17 8.66 17 9.32 17 10 C10.33689395 8.24168035 5.1279353 5.6668403 0 1 C0 0.67 0 0.34 0 0 Z " fill="#26184E" transform="translate(38,231)"/>
<path d="M0 0 C0.99 0.33 1.98 0.66 3 1 C2.319375 2.5159375 2.319375 2.5159375 1.625 4.0625 C0.08137135 7.64723004 -0.999803 11.23002669 -2 15 C-2.33 15 -2.66 15 -3 15 C-3.55353075 4.44191344 -3.55353075 4.44191344 0 0 Z " fill="#4BB7D5" transform="translate(91,81)"/>
<path d="M0 0 C0.66 0 1.32 0 2 0 C0.21873667 3.6344969 -1.70197866 7.18884937 -3.625 10.75 C-3.94984375 11.35199219 -4.2746875 11.95398438 -4.609375 12.57421875 C-5.40570585 14.04977297 -6.20277839 15.52492686 -7 17 C-8.19519916 13.41440251 -7.74530914 12.80277556 -6.1875 9.5 C-5.83042969 8.7265625 -5.47335938 7.953125 -5.10546875 7.15625 C-4 5 -4 5 -2 2 C-1.34 2 -0.68 2 0 2 C0 1.34 0 0.68 0 0 Z " fill="#032938" transform="translate(29,39)"/>
<path d="M0 0 C0.66 0 1.32 0 2 0 C1.67 2.31 1.34 4.62 1 7 C2.32 7.33 3.64 7.66 5 8 C3.35 8.33 1.7 8.66 0 9 C0 8.34 0 7.68 0 7 C-0.99 7.495 -0.99 7.495 -2 8 C-3.99960012 8.039992 -6.00047242 8.04346799 -8 8 C-6.68 7.67 -5.36 7.34 -4 7 C-4 6.01 -4 5.02 -4 4 C-3.01 4 -2.02 4 -1 4 C-0.67 2.68 -0.34 1.36 0 0 Z " fill="#1F1B43" transform="translate(166,196)"/>
<path d="M0 0 C0.66 0 1.32 0 2 0 C1.89300781 0.89203125 1.78601563 1.7840625 1.67578125 2.703125 C1.55589844 3.87359375 1.43601563 5.0440625 1.3125 6.25 C1.18488281 7.41015625 1.05726563 8.5703125 0.92578125 9.765625 C1.00745011 13.32466794 1.57527562 14.48177725 4 17 C2.68 17 1.36 17 0 17 C-2.09029246 10.61299527 -1.93012632 6.41395823 0 0 Z " fill="#7684D2" transform="translate(134,167)"/>
<path d="M0 0 C0.66 0 1.32 0 2 0 C2.309375 1.11375 2.61875 2.2275 2.9375 3.375 C3.82326483 6.7945155 3.82326483 6.7945155 5 9 C4.91255632 10.87862875 4.75824458 12.75455181 4.5625 14.625 C4.46066406 15.62789062 4.35882813 16.63078125 4.25390625 17.6640625 C4.17011719 18.43492188 4.08632812 19.20578125 4 20 C3.67 20 3.34 20 3 20 C1.85768588 13.34574301 0.77397533 6.70778622 0 0 Z " fill="#021D32" transform="translate(165,87)"/>
<path d="M0 0 C1.2065625 0.0309375 1.2065625 0.0309375 2.4375 0.0625 C2.4375 1.0525 2.4375 2.0425 2.4375 3.0625 C1.4475 3.3925 0.4575 3.7225 -0.5625 4.0625 C-0.8925 6.3725 -1.2225 8.6825 -1.5625 11.0625 C-3.5625 9.0625 -3.5625 9.0625 -3.79296875 7.15234375 C-3.6519597 0.08907219 -3.6519597 0.08907219 0 0 Z " fill="#7380C3" transform="translate(159.5625,171.9375)"/>
<path d="M0 0 C4.14325595 4.89657521 5.30217221 9.65438369 5 16 C3 15 3 15 2.1484375 12.63671875 C1.89320313 11.66347656 1.63796875 10.69023438 1.375 9.6875 C1.11460937 8.72199219 0.85421875 7.75648437 0.5859375 6.76171875 C0 4 0 4 0 0 Z " fill="#0C4159" transform="translate(232,53)"/>
<path d="M0 0 C1.78409802 3.06246747 2.22880021 5.22079273 2.125 8.75 C2.10695312 9.54921875 2.08890625 10.3484375 2.0703125 11.171875 C2.04710937 11.77515625 2.02390625 12.3784375 2 13 C1.67 13 1.34 13 1 13 C-0.10228696 8.59085217 -0.07654536 4.51617599 0 0 Z M-3 4 C-1.4375 5.6875 -1.4375 5.6875 0 8 C-0.3125 10.75 -0.3125 10.75 -1 13 C-2.85776765 9.86501708 -3.20140476 7.62528568 -3 4 Z " fill="#57C6E1" transform="translate(240,59)"/>
<path d="M0 0 C0.89525391 0.30164063 0.89525391 0.30164063 1.80859375 0.609375 C-2.58183483 4.03390929 -5.48161075 6.19158509 -11.19140625 6.609375 C-8.34034453 3.44152865 -4.47948922 -0.79848293 0 0 Z " fill="#261B51" transform="translate(225.19140625,238.390625)"/>
<path d="M0 0 C1.5644362 3.01346316 2.64100438 5.5895416 3 9 C2.34 9.66 1.68 10.32 1 11 C1 10.01 1 9.02 1 8 C0.34 8 -0.32 8 -1 8 C-1.33 9.32 -1.66 10.64 -2 12 C-3.40907283 9.18185434 -2.50872691 7.82722796 -1.5625 4.875 C-1.27503906 3.96492187 -0.98757812 3.05484375 -0.69140625 2.1171875 C-0.46324219 1.41851562 -0.23507813 0.71984375 0 0 Z " fill="#6D6FB3" transform="translate(173,180)"/>
<path d="M0 0 C2.46617602 4.76794031 3.11580769 8.30342326 3.0625 13.6875 C3.05347656 14.86699219 3.04445312 16.04648438 3.03515625 17.26171875 C3.02355469 18.16535156 3.01195312 19.06898437 3 20 C2.67 20 2.34 20 2 20 C1.96261719 19.16855469 1.92523438 18.33710937 1.88671875 17.48046875 C1.82097656 16.39378906 1.75523437 15.30710937 1.6875 14.1875 C1.62949219 13.10855469 1.57148438 12.02960938 1.51171875 10.91796875 C0.96931493 7.82502483 0.44710376 6.86977097 -2 5 C-1.34 3.35 -0.68 1.7 0 0 Z " fill="#4CA2C4" transform="translate(164,88)"/>
<path d="M0 0 C0.33 0 0.66 0 1 0 C0.50620509 6.5427825 0.50620509 6.5427825 -1.9375 8.75 C-2.9584375 9.36875 -2.9584375 9.36875 -4 10 C-4.66 10.99 -5.32 11.98 -6 13 C-6.33 12.34 -6.66 11.68 -7 11 C-5.9545437 7.86363109 -5.23811043 7.23811043 -3 5 C-1.99431758 3.33675599 -0.99335201 1.67063747 0 0 Z " fill="#51C2E1" transform="translate(169,78)"/>
<path d="M0 0 C4.21912747 0.4794463 6.79663178 1.16625119 10 4 C8.56666979 4.39063507 7.12807321 4.76198474 5.6875 5.125 C4.48673828 5.43824219 4.48673828 5.43824219 3.26171875 5.7578125 C1 6 1 6 -2 4 C-0.02 4 1.96 4 4 4 C4 3.34 4 2.68 4 2 C2.68 1.34 1.36 0.68 0 0 Z " fill="#41C0D2" transform="translate(204,25)"/>
<path d="M0 0 C2.40243465 2.15344283 3.60244944 3.96874765 4.6875 7 C4.93886719 7.680625 5.19023437 8.36125 5.44921875 9.0625 C6 11 6 11 6 14 C5.34 14 4.68 14 4 14 C3.32471777 12.42032193 2.66010306 10.83608097 2 9.25 C1.62875 8.36828125 1.2575 7.4865625 0.875 6.578125 C0 4 0 4 0 0 Z " fill="#7D72C9" transform="translate(142,191)"/>
<path d="M0 0 C3.26681491 1.63340746 4.54702397 4.78269593 6 8 C6 8.66 6 9.32 6 10 C4.68 10 3.36 10 2 10 C1.34 6.7 0.68 3.4 0 0 Z " fill="#7B6FCE" transform="translate(19,207)"/>
<path d="M0 0 C0.66 1.32 1.32 2.64 2 4 C1.01 4.33 0.02 4.66 -1 5 C-1 6.98 -1 8.96 -1 11 C-1.99 11 -2.98 11 -4 11 C-4 8.69 -4 6.38 -4 4 C-2.68 3.67 -1.36 3.34 0 3 C0 2.01 0 1.02 0 0 Z " fill="#222A54" transform="translate(162,172)"/>
<path d="M0 0 C1.32 0.33 2.64 0.66 4 1 C1.69 3.97 -0.62 6.94 -3 10 C-3.33 9.34 -3.66 8.68 -4 8 C-3.22265625 6.0546875 -3.22265625 6.0546875 -2.0625 3.875 C-1.49208984 2.78832031 -1.49208984 2.78832031 -0.91015625 1.6796875 C-0.60980469 1.12539062 -0.30945313 0.57109375 0 0 Z " fill="#7D8ADB" transform="translate(77,175)"/>
<path d="M0 0 C1.56073255 2.34109882 2.86373867 4.56333403 4.125 7.0625 C4.47820312 7.75472656 4.83140625 8.44695312 5.1953125 9.16015625 C6 11 6 11 6 13 C5.01 12.67 4.02 12.34 3 12 C3 11.34 3 10.68 3 10 C2.34 10 1.68 10 1 10 C0.67 6.7 0.34 3.4 0 0 Z " fill="#0D2944" transform="translate(87,113)"/>
<path d="M0 0 C0.66 1.65 1.32 3.3 2 5 C-3.53846154 4.38461538 -3.53846154 4.38461538 -5.875 2.4375 C-6.24625 1.963125 -6.6175 1.48875 -7 1 C-4 0 -4 0 0 0 Z " fill="#49D6E9" transform="translate(215,29)"/>
<path d="M0 0 C1.5 1.1875 1.5 1.1875 3 3 C3.1875 5.6875 3.1875 5.6875 3 8 C0.69 8.33 -1.62 8.66 -4 9 C-2.68 8.67 -1.36 8.34 0 8 C-0.2784375 6.2984375 -0.2784375 6.2984375 -0.5625 4.5625 C-0.706875 3.386875 -0.85125 2.21125 -1 1 C-0.67 0.67 -0.34 0.34 0 0 Z " fill="#5F9ECC" transform="translate(171,122)"/>
<path d="M0 0 C2.475 0.495 2.475 0.495 5 1 C5.625 2.8125 5.625 2.8125 6 5 C5.01 6.485 5.01 6.485 4 8 C3.34 7.34 2.68 6.68 2 6 C2 5.01 2 4.02 2 3 C1.34 2.67 0.68 2.34 0 2 C0 1.34 0 0.68 0 0 Z " fill="#44CFE7" transform="translate(232,48)"/>
<path d="M0 0 C2.97 0.33 5.94 0.66 9 1 C7.515 2.485 7.515 2.485 6 4 C6.33 4.66 6.66 5.32 7 6 C4.625 5.8125 4.625 5.8125 2 5 C0.6875 2.4375 0.6875 2.4375 0 0 Z " fill="#8565D8" transform="translate(49,241)"/>
<path d="M0 0 C1.99097846 2.98646769 2.94124926 5.59687262 4 9 C3.01 9.33 2.02 9.66 1 10 C0.34 10.66 -0.32 11.32 -1 12 C-1.33 10.68 -1.66 9.36 -2 8 C-1.01 8 -0.02 8 1 8 C0.67 7.34 0.34 6.68 0 6 C-0.039992 4.00039988 -0.04346799 1.99952758 0 0 Z " fill="#7265C0" transform="translate(24,209)"/>
<path d="M0 0 C0.66 0 1.32 0 2 0 C2 0.66 2 1.32 2 2 C2.99 1.67 3.98 1.34 5 1 C7.1875 1.9375 7.1875 1.9375 9 3 C8 5 8 5 6 6 C5.01 6 4.02 6 3 6 C2.01 4.02 1.02 2.04 0 0 Z " fill="#43C0D7" transform="translate(227,44)"/>
<path d="M0 0 C0.81864929 2.29221801 1.05688635 3.72369489 0.5625 6.125 C-1.98593523 9.18312228 -5.1637451 9.25749905 -9 10 C-7.1875 8 -7.1875 8 -5 6 C-4.01 6 -3.02 6 -2 6 C-1.34 4.02 -0.68 2.04 0 0 Z " fill="#607ABC" transform="translate(95,158)"/>
<path d="M0 0 C0.33 0 0.66 0 1 0 C1.56561146 5.65611463 -0.28608722 9.22642128 -3 14 C-4.37095624 10.30962722 -3.60010967 8.29116165 -2.0625 4.75 C-1.68222656 3.85796875 -1.30195313 2.9659375 -0.91015625 2.046875 C-0.60980469 1.37140625 -0.30945313 0.6959375 0 0 Z " fill="#0D4658" transform="translate(28,53)"/>
<path d="M0 0 C1.32 0 2.64 0 4 0 C4.125 3.375 4.125 3.375 4 7 C3.34 7.66 2.68 8.32 2 9 C1.34 6.03 0.68 3.06 0 0 Z " fill="#8276D7" transform="translate(154,190)"/>
<path d="M0 0 C2.31 0.33 4.62 0.66 7 1 C6.01 2.485 6.01 2.485 5 4 C3.35 3.67 1.7 3.34 0 3 C0 2.01 0 1.02 0 0 Z " fill="#906CE2" transform="translate(55,243)"/>
<path d="M0 0 C0.33 0 0.66 0 1 0 C1 2.97 1 5.94 1 9 C-0.98 9.99 -0.98 9.99 -3 11 C-2.01 11.33 -1.02 11.66 0 12 C-1.32 12 -2.64 12 -4 12 C-4 10.68 -4 9.36 -4 8 C-3.01 7.67 -2.02 7.34 -1 7 C-0.67 4.69 -0.34 2.38 0 0 Z " fill="#7169AE" transform="translate(188,191)"/>
<path d="M0 0 C0 0.66 0 1.32 0 2 C-3.98060777 3.17076699 -7.91621717 4.25749403 -12 5 C-8.55392327 1.00980589 -5.20909181 0 0 0 Z " fill="#3FB1BD" transform="translate(55,26)"/>
<path d="M0 0 C0.33 0 0.66 0 1 0 C0.67 3.63 0.34 7.26 0 11 C-0.99 10.67 -1.98 10.34 -3 10 C-2.01 6.7 -1.02 3.4 0 0 Z " fill="#5A90C6" transform="translate(166,132)"/>
<path d="M0 0 C0.99 0 1.98 0 3 0 C3.98248524 4.0527516 4.08159574 7.83861737 4 12 C1.78600697 8.20458337 0.99019802 4.24370579 0 0 Z " fill="#0A425A" transform="translate(238,51)"/>
<path d="M0 0 C0.33 0 0.66 0 1 0 C0.67 2.31 0.34 4.62 0 7 C-1.32 7.33 -2.64 7.66 -4 8 C-2.25 2.25 -2.25 2.25 0 0 Z " fill="#42D0E4" transform="translate(27,50)"/>
<path d="M0 0 C4.95 1.98 4.95 1.98 10 4 C7 6 7 6 4.8125 5.625 C4.214375 5.41875 3.61625 5.2125 3 5 C3 4.34 3 3.68 3 3 C2.01 2.67 1.02 2.34 0 2 C0 1.34 0 0.68 0 0 Z " fill="#221447" transform="translate(39,240)"/>
<path d="M0 0 C0.66 0 1.32 0 2 0 C0.34832443 3.5786304 -1.78286492 6.74820188 -4 10 C-4.8125 8.375 -4.8125 8.375 -5 6 C-2.6875 2.75 -2.6875 2.75 0 0 Z " fill="#0B1337" transform="translate(77,172)"/>
<path d="M0 0 C0.33 0 0.66 0 1 0 C1.49230769 7.38461538 1.49230769 7.38461538 -1 10.5 C-1.66 10.995 -2.32 11.49 -3 12 C-2.67 10.02 -2.34 8.04 -2 6 C-1.34 6 -0.68 6 0 6 C0 4.02 0 2.04 0 0 Z " fill="#5E7EB5" transform="translate(163,145)"/>
<path d="M0 0 C3.81684226 1.55500981 6.19195732 4.03595495 9 7 C5.13066838 6.42676569 2.84777943 4.61046448 0 2 C0 1.34 0 0.68 0 0 Z " fill="#04384D" transform="translate(216,36)"/>
<path d="M0 0 C1.98 0.495 1.98 0.495 4 1 C4.33 2.32 4.66 3.64 5 5 C3.35 5 1.7 5 0 5 C-0.33 4.01 -0.66 3.02 -1 2 C-0.67 1.34 -0.34 0.68 0 0 Z " fill="#9073E6" transform="translate(40,235)"/>
<path d="M0 0 C-2.64 1.65 -5.28 3.3 -8 5 C-7 1 -7 1 -5.125 -0.3125 C-3 -1 -3 -1 0 0 Z " fill="#091434" transform="translate(90,165)"/>
<path d="M0 0 C1.32 0.33 2.64 0.66 4 1 C-0.455 3.97 -0.455 3.97 -5 7 C-4.67 5.68 -4.34 4.36 -4 3 C-2.68 2.67 -1.36 2.34 0 2 C0 1.34 0 0.68 0 0 Z " fill="#052B3D" transform="translate(102,67)"/>
<path d="M0 0 C6.52307692 0.61538462 6.52307692 0.61538462 8.9375 2.5625 C9.288125 3.036875 9.63875 3.51125 10 4 C2.25 3.125 2.25 3.125 0 2 C0 1.34 0 0.68 0 0 Z " fill="#0B4C5E" transform="translate(203,30)"/>
<path d="M0 0 C0.66 0 1.32 0 2 0 C2 2.97 2 5.94 2 9 C0.4375 7.3125 0.4375 7.3125 -1 5 C-0.6875 2.25 -0.6875 2.25 0 0 Z " fill="#4ED5EE" transform="translate(238,58)"/>
<path d="M0 0 C0.99 0 1.98 0 3 0 C2.67 1.65 2.34 3.3 2 5 C0.68 5 -0.64 5 -2 5 C-2 4.01 -2 3.02 -2 2 C-1.34 2 -0.68 2 0 2 C0 1.34 0 0.68 0 0 Z " fill="#4CD4E8" transform="translate(29,44)"/>
<path d="M0 0 C0.66 0.66 1.32 1.32 2 2 C1.34 4.31 0.68 6.62 0 9 C-0.66 8.67 -1.32 8.34 -2 8 C-1.125 1.125 -1.125 1.125 0 0 Z " fill="#6D9FE0" transform="translate(163,142)"/>
<path d="M0 0 C1.4540625 0.0309375 1.4540625 0.0309375 2.9375 0.0625 C-1.5625 3.0625 -1.5625 3.0625 -6.0625 6.0625 C-3.76028481 0.07674051 -3.76028481 0.07674051 0 0 Z " fill="#44C7DD" transform="translate(107.0625,67.9375)"/>
</svg>
